<svg xmlns="http://www.w3.org/2000/svg" xmlns:xlink="http://www.w3.org/1999/xlink" version="1.1" data-diagram-type="CLASS" style="width:1033px;height:982px;background:#FFFFFF;" width="1033px" height="982px" viewBox="0 0 1033 982" zoomAndPan="magnify" preserveAspectRatio="none" contentStyleType="text/css"><?plantuml 1.2026.7?><defs/><g font-family="sans-serif" lengthAdjust="spacing"><g class="title" data-source-line="10"><text x="474.356" y="26.078" fill="#000" font-size="14" textLength="78.034" font-weight="700" font-family="'Thonburi'">DB — PSQL</text></g><!--class users--><g class="entity" data-qualified-name="users" id="ent0001" data-source-line="12"><rect x="265.83" y="56.902" width="253.423" height="122.359" fill="#F1F1F1" style="stroke:#181818;stroke-width:0.5;" rx="2.5" ry="2.5"/><text x="374.591" y="77.98" fill="#000" font-size="14" textLength="35.902" font-family="'Thonburi'">users</text><line x1="266.83" y1="86.174" x2="518.253" y2="86.174" style="stroke:#181818;stroke-width:0.5;"/><g data-visibility-modifier="IE_MANDATORY"><ellipse cx="276.83" cy="101.31" rx="3" ry="3" fill="#000" style="stroke:#000;stroke-width:1;"/></g><text x="285.83" y="106.252" fill="#000" font-size="14" textLength="128.477" font-family="'Thonburi'">user_id : uuid «PK»</text><line x1="266.83" y1="113.446" x2="518.253" y2="113.446" style="stroke:#181818;stroke-width:1;"/><g data-visibility-modifier="IE_MANDATORY"><ellipse cx="276.83" cy="128.582" rx="3" ry="3" fill="#000" style="stroke:#000;stroke-width:1;"/></g><text x="285.83" y="133.524" fill="#000" font-size="14" textLength="187.288" font-family="'Thonburi'">line_user_id : text «unique»</text><text x="285.83" y="152.796" fill="#000" font-size="14" textLength="227.423" font-family="'Thonburi'">pdpa_accepted_at : timestamptz</text><g data-visibility-modifier="IE_MANDATORY"><ellipse cx="276.83" cy="167.125" rx="3" ry="3" fill="#000" style="stroke:#000;stroke-width:1;"/></g><text x="285.83" y="172.067" fill="#000" font-size="14" textLength="174.415" font-family="'Thonburi'">created_at : timestamptz</text></g><!--class sessions--><g class="entity" data-qualified-name="sessions" id="ent0002" data-source-line="20"><rect x="226.8" y="248.902" width="331.479" height="160.903" fill="#F1F1F1" style="stroke:#181818;stroke-width:0.5;" rx="2.5" ry="2.5"/><text x="364.277" y="269.98" fill="#000" font-size="14" textLength="56.525" font-family="'Thonburi'">sessions</text><line x1="227.8" y1="278.174" x2="557.279" y2="278.174" style="stroke:#181818;stroke-width:0.5;"/><g data-visibility-modifier="IE_MANDATORY"><ellipse cx="237.8" cy="293.31" rx="3" ry="3" fill="#000" style="stroke:#000;stroke-width:1;"/></g><text x="246.8" y="298.252" fill="#000" font-size="14" textLength="149.1" font-family="'Thonburi'">session_id : uuid «PK»</text><line x1="227.8" y1="305.446" x2="557.279" y2="305.446" style="stroke:#181818;stroke-width:1;"/><g data-visibility-modifier="IE_MANDATORY"><ellipse cx="237.8" cy="320.582" rx="3" ry="3" fill="#000" style="stroke:#000;stroke-width:1;"/></g><text x="246.8" y="325.524" fill="#000" font-size="14" textLength="128.051" font-family="'Thonburi'">user_id : uuid «FK»</text><g data-visibility-modifier="IE_MANDATORY"><ellipse cx="237.8" cy="339.853" rx="3" ry="3" fill="#000" style="stroke:#000;stroke-width:1;"/></g><text x="246.8" y="344.796" fill="#000" font-size="14" textLength="305.479" font-family="'Thonburi'">status : เปิด | ปิด | วิเคราะห์แล้ว | วิเคราะห์ไม่สำเร็จ</text><g data-visibility-modifier="IE_MANDATORY"><ellipse cx="237.8" cy="359.125" rx="3" ry="3" fill="#000" style="stroke:#000;stroke-width:1;"/></g><text x="246.8" y="364.067" fill="#000" font-size="14" textLength="172.058" font-family="'Thonburi'">started_at : timestamptz</text><g data-visibility-modifier="IE_MANDATORY"><ellipse cx="237.8" cy="378.397" rx="3" ry="3" fill="#000" style="stroke:#000;stroke-width:1;"/></g><text x="246.8" y="383.339" fill="#000" font-size="14" textLength="215.753" font-family="'Thonburi'">last_message_at : timestamptz</text><text x="246.8" y="402.611" fill="#000" font-size="14" textLength="165.895" font-family="'Thonburi'">closed_at : timestamptz</text></g><!--class messages--><g class="entity" data-qualified-name="messages" id="ent0003" data-source-line="30"><rect x="7" y="469.802" width="275.074" height="257.262" fill="#F1F1F1" style="stroke:#181818;stroke-width:0.5;" rx="2.5" ry="2.5"/><text x="111.38" y="490.88" fill="#000" font-size="14" textLength="66.314" font-family="'Thonburi'">messages</text><line x1="8" y1="499.074" x2="281.074" y2="499.074" style="stroke:#181818;stroke-width:0.5;"/><g data-visibility-modifier="IE_MANDATORY"><ellipse cx="18" cy="514.21" rx="3" ry="3" fill="#000" style="stroke:#000;stroke-width:1;"/></g><text x="27" y="519.152" fill="#000" font-size="14" textLength="158.889" font-family="'Thonburi'">message_id : uuid «PK»</text><line x1="8" y1="526.346" x2="281.074" y2="526.346" style="stroke:#181818;stroke-width:1;"/><g data-visibility-modifier="IE_MANDATORY"><ellipse cx="18" cy="541.482" rx="3" ry="3" fill="#000" style="stroke:#000;stroke-width:1;"/></g><text x="27" y="546.424" fill="#000" font-size="14" textLength="148.673" font-family="'Thonburi'">session_id : uuid «FK»</text><text x="27" y="565.696" fill="#000" font-size="14" textLength="196.919" font-family="'Thonburi'">line_event_id : text «unique»</text><text x="27" y="584.967" fill="#000" font-size="14" textLength="153.803" font-family="'Thonburi'">line_message_id : text</text><g data-visibility-modifier="IE_MANDATORY"><ellipse cx="18" cy="599.297" rx="3" ry="3" fill="#000" style="stroke:#000;stroke-width:1;"/></g><text x="27" y="604.239" fill="#000" font-size="14" textLength="108.084" font-family="'Thonburi'">role : ผู้แจ้ง | บอท</text><g data-visibility-modifier="IE_MANDATORY"><ellipse cx="18" cy="618.569" rx="3" ry="3" fill="#000" style="stroke:#000;stroke-width:1;"/></g><text x="27" y="623.511" fill="#000" font-size="14" textLength="249.074" font-family="'Thonburi'">type : text | image | location | sticker</text><text x="27" y="642.783" fill="#000" font-size="14" textLength="94.374" font-family="'Thonburi'">content : text</text><text x="27" y="662.055" fill="#000" font-size="14" textLength="61.961" font-family="'Thonburi'">lat : float</text><text x="27" y="681.327" fill="#000" font-size="14" textLength="64.717" font-family="'Thonburi'">lng : float</text><g data-visibility-modifier="IE_MANDATORY"><ellipse cx="18" cy="695.657" rx="3" ry="3" fill="#000" style="stroke:#000;stroke-width:1;"/></g><text x="27" y="700.599" fill="#000" font-size="14" textLength="174.316" font-family="'Thonburi'">status : ยังไม่ตอบ | ตอบแล้ว</text><g data-visibility-modifier="IE_MANDATORY"><ellipse cx="18" cy="714.928" rx="3" ry="3" fill="#000" style="stroke:#000;stroke-width:1;"/></g><text x="27" y="719.871" fill="#000" font-size="14" textLength="174.415" font-family="'Thonburi'">created_at : timestamptz</text></g><!--class attachments--><g class="entity" data-qualified-name="attachments" id="ent0004" data-source-line="45"><rect x="267.36" y="787.072" width="322.357" height="180.175" fill="#F1F1F1" style="stroke:#181818;stroke-width:0.5;" rx="2.5" ry="2.5"/><text x="385.642" y="808.15" fill="#000" font-size="14" textLength="85.794" font-family="'Thonburi'">attachments</text><line x1="268.36" y1="816.344" x2="588.717" y2="816.344" style="stroke:#181818;stroke-width:0.5;"/><g data-visibility-modifier="IE_MANDATORY"><ellipse cx="278.36" cy="831.48" rx="3" ry="3" fill="#000" style="stroke:#000;stroke-width:1;"/></g><text x="287.36" y="836.422" fill="#000" font-size="14" textLength="178.369" font-family="'Thonburi'">attachment_id : uuid «PK»</text><line x1="268.36" y1="843.616" x2="588.717" y2="843.616" style="stroke:#181818;stroke-width:1;"/><g data-visibility-modifier="IE_MANDATORY"><ellipse cx="278.36" cy="858.752" rx="3" ry="3" fill="#000" style="stroke:#000;stroke-width:1;"/></g><text x="287.36" y="863.694" fill="#000" font-size="14" textLength="158.462" font-family="'Thonburi'">message_id : uuid «FK»</text><text x="287.36" y="882.966" fill="#000" font-size="14" textLength="296.357" font-family="'Thonburi'">report_id : uuid «FK» (null จนตัววิเคราะห์เลือก)</text><g data-visibility-modifier="IE_MANDATORY"><ellipse cx="278.36" cy="897.295" rx="3" ry="3" fill="#000" style="stroke:#000;stroke-width:1;"/></g><text x="287.36" y="902.237" fill="#000" font-size="14" textLength="84.388" font-family="'Thonburi'">type : image</text><g data-visibility-modifier="IE_MANDATORY"><ellipse cx="278.36" cy="916.567" rx="3" ry="3" fill="#000" style="stroke:#000;stroke-width:1;"/></g><text x="287.36" y="921.509" fill="#000" font-size="14" textLength="101.418" font-family="'Thonburi'">file_path : text</text><text x="287.36" y="940.781" fill="#000" font-size="14" textLength="149.007" font-family="'Thonburi'">desc : text (ว่างไว้ก่อน)</text><g data-visibility-modifier="IE_MANDATORY"><ellipse cx="278.36" cy="955.111" rx="3" ry="3" fill="#000" style="stroke:#000;stroke-width:1;"/></g><text x="287.36" y="960.053" fill="#000" font-size="14" textLength="174.415" font-family="'Thonburi'">created_at : timestamptz</text></g><!--class reports--><g class="entity" data-qualified-name="reports" id="ent0005" data-source-line="56"><rect x="613.33" y="489.072" width="200.415" height="218.719" fill="#F1F1F1" style="stroke:#181818;stroke-width:0.5;" rx="2.5" ry="2.5"/><text x="688.975" y="510.15" fill="#000" font-size="14" textLength="49.126" font-family="'Thonburi'">reports</text><line x1="614.33" y1="518.344" x2="812.745" y2="518.344" style="stroke:#181818;stroke-width:0.5;"/><g data-visibility-modifier="IE_MANDATORY"><ellipse cx="624.33" cy="533.48" rx="3" ry="3" fill="#000" style="stroke:#000;stroke-width:1;"/></g><text x="633.33" y="538.422" fill="#000" font-size="14" textLength="141.701" font-family="'Thonburi'">report_id : uuid «PK»</text><line x1="614.33" y1="545.616" x2="812.745" y2="545.616" style="stroke:#181818;stroke-width:1;"/><g data-visibility-modifier="IE_MANDATORY"><ellipse cx="624.33" cy="560.752" rx="3" ry="3" fill="#000" style="stroke:#000;stroke-width:1;"/></g><text x="633.33" y="565.694" fill="#000" font-size="14" textLength="148.673" font-family="'Thonburi'">session_id : uuid «FK»</text><g data-visibility-modifier="IE_MANDATORY"><ellipse cx="624.33" cy="580.023" rx="3" ry="3" fill="#000" style="stroke:#000;stroke-width:1;"/></g><text x="633.33" y="584.966" fill="#000" font-size="14" textLength="161.213" font-family="'Thonburi'">ai_config_id : uuid «FK»</text><text x="633.33" y="604.237" fill="#000" font-size="14" textLength="83.573" font-family="'Thonburi'">tags : text[]</text><text x="633.33" y="623.509" fill="#000" font-size="14" textLength="61.961" font-family="'Thonburi'">lat : float</text><text x="633.33" y="642.781" fill="#000" font-size="14" textLength="64.717" font-family="'Thonburi'">lng : float</text><g data-visibility-modifier="IE_MANDATORY"><ellipse cx="624.33" cy="657.111" rx="3" ry="3" fill="#000" style="stroke:#000;stroke-width:1;"/></g><text x="633.33" y="662.053" fill="#000" font-size="14" textLength="72.696" font-family="'Thonburi'">desc : text</text><g data-visibility-modifier="IE_MANDATORY"><ellipse cx="624.33" cy="676.383" rx="3" ry="3" fill="#000" style="stroke:#000;stroke-width:1;"/></g><text x="633.33" y="681.325" fill="#000" font-size="14" textLength="172.058" font-family="'Thonburi'">started_at : timestamptz</text><g data-visibility-modifier="IE_MANDATORY"><ellipse cx="624.33" cy="695.655" rx="3" ry="3" fill="#000" style="stroke:#000;stroke-width:1;"/></g><text x="633.33" y="700.597" fill="#000" font-size="14" textLength="174.415" font-family="'Thonburi'">created_at : timestamptz</text></g><!--class ai_calls--><g class="entity" data-qualified-name="ai_calls" id="ent0006" data-source-line="69"><rect x="317.21" y="469.802" width="260.658" height="257.262" fill="#F1F1F1" style="stroke:#181818;stroke-width:0.5;" rx="2.5" ry="2.5"/><text x="422.818" y="490.88" fill="#000" font-size="14" textLength="49.443" font-family="'Thonburi'">ai_calls</text><line x1="318.21" y1="499.074" x2="576.868" y2="499.074" style="stroke:#181818;stroke-width:0.5;"/><g data-visibility-modifier="IE_MANDATORY"><ellipse cx="328.21" cy="514.21" rx="3" ry="3" fill="#000" style="stroke:#000;stroke-width:1;"/></g><text x="337.21" y="519.152" fill="#000" font-size="14" textLength="142.018" font-family="'Thonburi'">ai_call_id : uuid «PK»</text><line x1="318.21" y1="526.346" x2="576.868" y2="526.346" style="stroke:#181818;stroke-width:1;"/><g data-visibility-modifier="IE_MANDATORY"><ellipse cx="328.21" cy="541.482" rx="3" ry="3" fill="#000" style="stroke:#000;stroke-width:1;"/></g><text x="337.21" y="546.424" fill="#000" font-size="14" textLength="148.673" font-family="'Thonburi'">session_id : uuid «FK»</text><g data-visibility-modifier="IE_MANDATORY"><ellipse cx="328.21" cy="560.753" rx="3" ry="3" fill="#000" style="stroke:#000;stroke-width:1;"/></g><text x="337.21" y="565.696" fill="#000" font-size="14" textLength="161.213" font-family="'Thonburi'">ai_config_id : uuid «FK»</text><g data-visibility-modifier="IE_MANDATORY"><ellipse cx="328.21" cy="580.025" rx="3" ry="3" fill="#000" style="stroke:#000;stroke-width:1;"/></g><text x="337.21" y="584.967" fill="#000" font-size="14" textLength="152.414" font-family="'Thonburi'">kind : ตัวคุย | ตัววิเคราะห์</text><g data-visibility-modifier="IE_MANDATORY"><ellipse cx="328.21" cy="599.297" rx="3" ry="3" fill="#000" style="stroke:#000;stroke-width:1;"/></g><text x="337.21" y="604.239" fill="#000" font-size="14" textLength="101.199" font-family="'Thonburi'">request : jsonb</text><text x="337.21" y="623.511" fill="#000" font-size="14" textLength="137.424" font-family="'Thonburi'">response : text (ดิบ)</text><text x="337.21" y="642.783" fill="#000" font-size="14" textLength="120.384" font-family="'Thonburi'">input_tokens : int</text><text x="337.21" y="662.055" fill="#000" font-size="14" textLength="131.786" font-family="'Thonburi'">output_tokens : int</text><g data-visibility-modifier="IE_MANDATORY"><ellipse cx="328.21" cy="676.385" rx="3" ry="3" fill="#000" style="stroke:#000;stroke-width:1;"/></g><text x="337.21" y="681.327" fill="#000" font-size="14" textLength="234.658" font-family="'Thonburi'">status : สำเร็จ | error | ถูกตัด stream</text><text x="337.21" y="700.599" fill="#000" font-size="14" textLength="74.211" font-family="'Thonburi'">error : text</text><g data-visibility-modifier="IE_MANDATORY"><ellipse cx="328.21" cy="714.928" rx="3" ry="3" fill="#000" style="stroke:#000;stroke-width:1;"/></g><text x="337.21" y="719.871" fill="#000" font-size="14" textLength="174.415" font-family="'Thonburi'">created_at : timestamptz</text></g><!--class ai_configs--><g class="entity" data-qualified-name="ai_configs" id="ent0007" data-source-line="84"><rect x="593.42" y="248.902" width="240.244" height="160.903" fill="#F1F1F1" style="stroke:#181818;stroke-width:0.5;" rx="2.5" ry="2.5"/><text x="679.009" y="269.98" fill="#000" font-size="14" textLength="69.065" font-family="'Thonburi'">ai_configs</text><line x1="594.42" y1="278.174" x2="832.664" y2="278.174" style="stroke:#181818;stroke-width:0.5;"/><g data-visibility-modifier="IE_MANDATORY"><ellipse cx="604.42" cy="293.31" rx="3" ry="3" fill="#000" style="stroke:#000;stroke-width:1;"/></g><text x="613.42" y="298.252" fill="#000" font-size="14" textLength="161.64" font-family="'Thonburi'">ai_config_id : uuid «PK»</text><line x1="594.42" y1="305.446" x2="832.664" y2="305.446" style="stroke:#181818;stroke-width:1;"/><g data-visibility-modifier="IE_MANDATORY"><ellipse cx="604.42" cy="320.582" rx="3" ry="3" fill="#000" style="stroke:#000;stroke-width:1;"/></g><text x="613.42" y="325.524" fill="#000" font-size="14" textLength="179.14" font-family="'Thonburi'">chat_model_id : uuid «FK»</text><g data-visibility-modifier="IE_MANDATORY"><ellipse cx="604.42" cy="339.853" rx="3" ry="3" fill="#000" style="stroke:#000;stroke-width:1;"/></g><text x="613.42" y="344.796" fill="#000" font-size="14" textLength="187.835" font-family="'Thonburi'">chat_prompt_id : uuid «FK»</text><g data-visibility-modifier="IE_MANDATORY"><ellipse cx="604.42" cy="359.125" rx="3" ry="3" fill="#000" style="stroke:#000;stroke-width:1;"/></g><text x="613.42" y="364.067" fill="#000" font-size="14" textLength="205.548" font-family="'Thonburi'">analyzer_model_id : uuid «FK»</text><g data-visibility-modifier="IE_MANDATORY"><ellipse cx="604.42" cy="378.397" rx="3" ry="3" fill="#000" style="stroke:#000;stroke-width:1;"/></g><text x="613.42" y="383.339" fill="#000" font-size="14" textLength="214.244" font-family="'Thonburi'">analyzer_prompt_id : uuid «FK»</text><g data-visibility-modifier="IE_MANDATORY"><ellipse cx="604.42" cy="397.669" rx="3" ry="3" fill="#000" style="stroke:#000;stroke-width:1;"/></g><text x="613.42" y="402.611" fill="#000" font-size="14" textLength="174.415" font-family="'Thonburi'">created_at : timestamptz</text></g><!--class models--><g class="entity" data-qualified-name="models" id="ent0008" data-source-line="94"><rect x="583.33" y="47.272" width="200.415" height="141.631" fill="#F1F1F1" style="stroke:#181818;stroke-width:0.5;" rx="2.5" ry="2.5"/><text x="659.584" y="68.35" fill="#000" font-size="14" textLength="47.906" font-family="'Thonburi'">models</text><line x1="584.33" y1="76.544" x2="782.745" y2="76.544" style="stroke:#181818;stroke-width:0.5;"/><g data-visibility-modifier="IE_MANDATORY"><ellipse cx="594.33" cy="91.68" rx="3" ry="3" fill="#000" style="stroke:#000;stroke-width:1;"/></g><text x="603.33" y="96.622" fill="#000" font-size="14" textLength="140.481" font-family="'Thonburi'">model_id : uuid «PK»</text><line x1="584.33" y1="103.816" x2="782.745" y2="103.816" style="stroke:#181818;stroke-width:1;"/><g data-visibility-modifier="IE_MANDATORY"><ellipse cx="594.33" cy="118.952" rx="3" ry="3" fill="#000" style="stroke:#000;stroke-width:1;"/></g><text x="603.33" y="123.894" fill="#000" font-size="14" textLength="96.846" font-family="'Thonburi'">provider : text</text><g data-visibility-modifier="IE_MANDATORY"><ellipse cx="594.33" cy="138.223" rx="3" ry="3" fill="#000" style="stroke:#000;stroke-width:1;"/></g><text x="603.33" y="143.166" fill="#000" font-size="14" textLength="77.935" font-family="'Thonburi'">name : text</text><text x="603.33" y="162.437" fill="#000" font-size="14" textLength="72.696" font-family="'Thonburi'">desc : text</text><g data-visibility-modifier="IE_MANDATORY"><ellipse cx="594.33" cy="176.767" rx="3" ry="3" fill="#000" style="stroke:#000;stroke-width:1;"/></g><text x="603.33" y="181.709" fill="#000" font-size="14" textLength="174.415" font-family="'Thonburi'">created_at : timestamptz</text></g><!--class prompts--><g class="entity" data-qualified-name="prompts" id="ent0009" data-source-line="103"><rect x="818.33" y="56.902" width="200.415" height="122.359" fill="#F1F1F1" style="stroke:#181818;stroke-width:0.5;" rx="2.5" ry="2.5"/><text x="890.237" y="77.98" fill="#000" font-size="14" textLength="56.602" font-family="'Thonburi'">prompts</text><line x1="819.33" y1="86.174" x2="1017.745" y2="86.174" style="stroke:#181818;stroke-width:0.5;"/><g data-visibility-modifier="IE_MANDATORY"><ellipse cx="829.33" cy="101.31" rx="3" ry="3" fill="#000" style="stroke:#000;stroke-width:1;"/></g><text x="838.33" y="106.252" fill="#000" font-size="14" textLength="149.177" font-family="'Thonburi'">prompt_id : uuid «PK»</text><line x1="819.33" y1="113.446" x2="1017.745" y2="113.446" style="stroke:#181818;stroke-width:1;"/><g data-visibility-modifier="IE_MANDATORY"><ellipse cx="829.33" cy="128.582" rx="3" ry="3" fill="#000" style="stroke:#000;stroke-width:1;"/></g><text x="838.33" y="133.524" fill="#000" font-size="14" textLength="90.912" font-family="'Thonburi'">prompt : text</text><text x="838.33" y="152.796" fill="#000" font-size="14" textLength="72.696" font-family="'Thonburi'">desc : text</text><g data-visibility-modifier="IE_MANDATORY"><ellipse cx="829.33" cy="167.125" rx="3" ry="3" fill="#000" style="stroke:#000;stroke-width:1;"/></g><text x="838.33" y="172.067" fill="#000" font-size="14" textLength="174.415" font-family="'Thonburi'">created_at : timestamptz</text></g><!--link users to sessions--><g class="link" data-entity-1="ent0001" data-entity-2="ent0002" id="lnk10" data-source-line="111" data-link-type="crowfoot"><path d="M392.54,187.762 C392.54,209.322 392.54,207.852 392.54,230.722" style="stroke:#181818;stroke-width:1;" fill="none" id="users-sessions" codeLine="111"/><line x1="388.54" y1="183.762" x2="396.54" y2="183.762" style="stroke:#181818;stroke-width:1;"/><line x1="388.54" y1="186.762" x2="396.54" y2="186.762" style="stroke:#181818;stroke-width:1;"/><line x1="392.54" y1="187.762" x2="392.54" y2="179.762" style="stroke:#181818;stroke-width:1;"/><line x1="392.54" y1="240.722" x2="398.54" y2="248.722" style="stroke:#181818;stroke-width:1;"/><line x1="392.54" y1="240.722" x2="386.54" y2="248.722" style="stroke:#181818;stroke-width:1;"/><line x1="392.54" y1="240.722" x2="392.54" y2="248.722" style="stroke:#181818;stroke-width:1;"/><ellipse cx="392.54" cy="234.722" rx="4" ry="4" fill="none" style="stroke:#181818;stroke-width:1;"/></g><!--link sessions to messages--><g class="link" data-entity-1="ent0002" data-entity-2="ent0003" id="lnk11" data-source-line="112" data-link-type="crowfoot"><path d="M254.44,418.082 C254.44,436.822 254.44,431.212 254.44,451.442" style="stroke:#181818;stroke-width:1;" fill="none" id="sessions-messages" codeLine="112"/><line x1="250.44" y1="414.082" x2="258.44" y2="414.082" style="stroke:#181818;stroke-width:1;"/><line x1="250.44" y1="417.082" x2="258.44" y2="417.082" style="stroke:#181818;stroke-width:1;"/><line x1="254.44" y1="418.082" x2="254.44" y2="410.082" style="stroke:#181818;stroke-width:1;"/><line x1="254.44" y1="461.442" x2="260.44" y2="469.442" style="stroke:#181818;stroke-width:1;"/><line x1="254.44" y1="461.442" x2="248.44" y2="469.442" style="stroke:#181818;stroke-width:1;"/><line x1="254.44" y1="461.442" x2="254.44" y2="469.442" style="stroke:#181818;stroke-width:1;"/><ellipse cx="254.44" cy="455.442" rx="4" ry="4" fill="none" style="stroke:#181818;stroke-width:1;"/></g><!--link messages to attachments--><g class="link" data-entity-1="ent0003" data-entity-2="ent0004" id="lnk12" data-source-line="113" data-link-type="crowfoot"><path d="M274.72,735.192 C274.72,755.302 274.72,749.712 274.72,768.722" style="stroke:#181818;stroke-width:1;" fill="none" id="messages-attachments" codeLine="113"/><line x1="270.72" y1="731.192" x2="278.72" y2="731.192" style="stroke:#181818;stroke-width:1;"/><line x1="270.72" y1="734.192" x2="278.72" y2="734.192" style="stroke:#181818;stroke-width:1;"/><line x1="274.72" y1="735.192" x2="274.72" y2="727.192" style="stroke:#181818;stroke-width:1;"/><line x1="274.72" y1="778.722" x2="280.72" y2="786.722" style="stroke:#181818;stroke-width:1;"/><line x1="274.72" y1="778.722" x2="268.72" y2="786.722" style="stroke:#181818;stroke-width:1;"/><line x1="274.72" y1="778.722" x2="274.72" y2="786.722" style="stroke:#181818;stroke-width:1;"/><ellipse cx="274.72" cy="772.722" rx="4" ry="4" fill="none" style="stroke:#181818;stroke-width:1;"/></g><!--link sessions to reports--><g class="link" data-entity-1="ent0002" data-entity-2="ent0005" id="lnk13" data-source-line="114" data-link-type="crowfoot"><path d="M477.92,418.232 C477.92,435.292 477.92,440.242 477.92,440.242 C477.92,440.242 680.13,440.242 680.13,440.242 C680.13,440.242 680.13,443.802 680.13,470.992" style="stroke:#181818;stroke-width:1;" fill="none" id="sessions-reports" codeLine="114"/><line x1="473.92" y1="414.232" x2="481.92" y2="414.232" style="stroke:#181818;stroke-width:1;"/><line x1="473.92" y1="417.232" x2="481.92" y2="417.232" style="stroke:#181818;stroke-width:1;"/><line x1="477.92" y1="418.232" x2="477.92" y2="410.232" style="stroke:#181818;stroke-width:1;"/><line x1="680.13" y1="480.992" x2="686.13" y2="488.992" style="stroke:#181818;stroke-width:1;"/><line x1="680.13" y1="480.992" x2="674.13" y2="488.992" style="stroke:#181818;stroke-width:1;"/><line x1="680.13" y1="480.992" x2="680.13" y2="488.992" style="stroke:#181818;stroke-width:1;"/><ellipse cx="680.13" cy="474.992" rx="4" ry="4" fill="none" style="stroke:#181818;stroke-width:1;"/><text x="471.4" y="437.172" fill="#000" font-size="13" textLength="116.015" font-family="'Thonburi'">0..n ตัววิเคราะห์เลือก</text></g><!--link reports to attachments--><g class="link" data-entity-1="ent0005" data-entity-2="ent0004" id="lnk14" data-source-line="115" data-link-type="crowfoot"><path d="M713.54,723.232 C713.54,801.252 713.54,877.242 713.54,877.242 C713.54,877.242 672.51,877.242 608.19,877.242" style="stroke:#181818;stroke-width:1;" fill="none" id="reports-attachments" codeLine="115"/><line x1="713.54" y1="719.232" x2="713.54" y2="708.232" style="stroke:#181818;stroke-width:1;"/><ellipse cx="713.54" cy="719.232" rx="4" ry="4" fill="none" style="stroke:#181818;stroke-width:1;"/><line x1="709.54" y1="712.232" x2="717.54" y2="712.232" style="stroke:#181818;stroke-width:1;"/><line x1="598.19" y1="877.242" x2="590.19" y2="883.242" style="stroke:#181818;stroke-width:1;"/><line x1="598.19" y1="877.242" x2="590.19" y2="871.242" style="stroke:#181818;stroke-width:1;"/><line x1="598.19" y1="877.242" x2="590.19" y2="877.242" style="stroke:#181818;stroke-width:1;"/><ellipse cx="604.19" cy="877.242" rx="4" ry="4" fill="none" style="stroke:#181818;stroke-width:1;"/></g><!--link sessions to ai_calls--><g class="link" data-entity-1="ent0002" data-entity-2="ent0006" id="lnk15" data-source-line="116" data-link-type="crowfoot"><path d="M397.56,418.082 C397.56,436.822 397.56,431.212 397.56,451.442" style="stroke:#181818;stroke-width:1;" fill="none" id="sessions-ai_calls" codeLine="116"/><line x1="393.56" y1="414.082" x2="401.56" y2="414.082" style="stroke:#181818;stroke-width:1;"/><line x1="393.56" y1="417.082" x2="401.56" y2="417.082" style="stroke:#181818;stroke-width:1;"/><line x1="397.56" y1="418.082" x2="397.56" y2="410.082" style="stroke:#181818;stroke-width:1;"/><line x1="397.56" y1="461.442" x2="403.56" y2="469.442" style="stroke:#181818;stroke-width:1;"/><line x1="397.56" y1="461.442" x2="391.56" y2="469.442" style="stroke:#181818;stroke-width:1;"/><line x1="397.56" y1="461.442" x2="397.56" y2="469.442" style="stroke:#181818;stroke-width:1;"/><ellipse cx="397.56" cy="455.442" rx="4" ry="4" fill="none" style="stroke:#181818;stroke-width:1;"/></g><!--link ai_configs to ai_calls--><g class="link" data-entity-1="ent0007" data-entity-2="ent0006" id="lnk16" data-source-line="117" data-link-type="crowfoot"><path d="M603.37,418.002 C603.37,453.482 603.37,479.242 603.37,479.242 C603.37,479.242 611.33,479.242 596.33,479.242" style="stroke:#181818;stroke-width:1;" fill="none" id="ai_configs-ai_calls" codeLine="117"/><line x1="599.37" y1="414.002" x2="607.37" y2="414.002" style="stroke:#181818;stroke-width:1;"/><line x1="599.37" y1="417.002" x2="607.37" y2="417.002" style="stroke:#181818;stroke-width:1;"/><line x1="603.37" y1="418.002" x2="603.37" y2="410.002" style="stroke:#181818;stroke-width:1;"/><line x1="586.33" y1="479.242" x2="578.33" y2="485.242" style="stroke:#181818;stroke-width:1;"/><line x1="586.33" y1="479.242" x2="578.33" y2="473.242" style="stroke:#181818;stroke-width:1;"/><line x1="586.33" y1="479.242" x2="578.33" y2="479.242" style="stroke:#181818;stroke-width:1;"/><ellipse cx="592.33" cy="479.242" rx="4" ry="4" fill="none" style="stroke:#181818;stroke-width:1;"/></g><!--link ai_configs to reports--><g class="link" data-entity-1="ent0007" data-entity-2="ent0005" id="lnk17" data-source-line="118" data-link-type="crowfoot"><path d="M746.94,418.082 C746.94,442.852 746.94,444.542 746.94,470.892" style="stroke:#181818;stroke-width:1;" fill="none" id="ai_configs-reports" codeLine="118"/><line x1="742.94" y1="414.082" x2="750.94" y2="414.082" style="stroke:#181818;stroke-width:1;"/><line x1="742.94" y1="417.082" x2="750.94" y2="417.082" style="stroke:#181818;stroke-width:1;"/><line x1="746.94" y1="418.082" x2="746.94" y2="410.082" style="stroke:#181818;stroke-width:1;"/><line x1="746.94" y1="480.892" x2="752.94" y2="488.892" style="stroke:#181818;stroke-width:1;"/><line x1="746.94" y1="480.892" x2="740.94" y2="488.892" style="stroke:#181818;stroke-width:1;"/><line x1="746.94" y1="480.892" x2="746.94" y2="488.892" style="stroke:#181818;stroke-width:1;"/><ellipse cx="746.94" cy="474.892" rx="4" ry="4" fill="none" style="stroke:#181818;stroke-width:1;"/></g><!--link prompts to ai_configs--><g class="link" data-entity-1="ent0009" data-entity-2="ent0007" id="lnk18" data-source-line="119" data-link-type="crowfoot"><path d="M828.55,187.762 C828.55,209.322 828.55,207.852 828.55,230.722" style="stroke:#181818;stroke-width:1;" fill="none" id="prompts-ai_configs" codeLine="119"/><line x1="824.55" y1="183.762" x2="832.55" y2="183.762" style="stroke:#181818;stroke-width:1;"/><line x1="824.55" y1="186.762" x2="832.55" y2="186.762" style="stroke:#181818;stroke-width:1;"/><line x1="828.55" y1="187.762" x2="828.55" y2="179.762" style="stroke:#181818;stroke-width:1;"/><line x1="828.55" y1="240.722" x2="834.55" y2="248.722" style="stroke:#181818;stroke-width:1;"/><line x1="828.55" y1="240.722" x2="822.55" y2="248.722" style="stroke:#181818;stroke-width:1;"/><line x1="828.55" y1="240.722" x2="828.55" y2="248.722" style="stroke:#181818;stroke-width:1;"/><ellipse cx="828.55" cy="234.722" rx="4" ry="4" fill="none" style="stroke:#181818;stroke-width:1;"/><text x="796.55" y="211.172" fill="#000" font-size="13" textLength="31.088" font-family="'Thonburi'">ตัวคุย</text></g><!--link prompts to ai_configs--><g class="link" data-entity-1="ent0009" data-entity-2="ent0007" id="lnk19" data-source-line="120" data-link-type="crowfoot"><path d="M823.44,187.762 C823.44,209.322 823.44,207.852 823.44,230.722" style="stroke:#181818;stroke-width:1;" fill="none" id="prompts-ai_configs-1" codeLine="120"/><line x1="819.44" y1="183.762" x2="827.44" y2="183.762" style="stroke:#181818;stroke-width:1;"/><line x1="819.44" y1="186.762" x2="827.44" y2="186.762" style="stroke:#181818;stroke-width:1;"/><line x1="823.44" y1="187.762" x2="823.44" y2="179.762" style="stroke:#181818;stroke-width:1;"/><line x1="823.44" y1="240.722" x2="829.44" y2="248.722" style="stroke:#181818;stroke-width:1;"/><line x1="823.44" y1="240.722" x2="817.44" y2="248.722" style="stroke:#181818;stroke-width:1;"/><line x1="823.44" y1="240.722" x2="823.44" y2="248.722" style="stroke:#181818;stroke-width:1;"/><ellipse cx="823.44" cy="234.722" rx="4" ry="4" fill="none" style="stroke:#181818;stroke-width:1;"/><text x="762.44" y="230.172" fill="#000" font-size="13" textLength="60.572" font-family="'Thonburi'">ตัววิเคราะห์</text></g><!--link models to ai_configs--><g class="link" data-entity-1="ent0008" data-entity-2="ent0007" id="lnk20" data-source-line="121" data-link-type="crowfoot"><path d="M720.3,197.312 C720.3,216.362 720.3,211.082 720.3,230.602" style="stroke:#181818;stroke-width:1;" fill="none" id="models-ai_configs" codeLine="121"/><line x1="716.3" y1="193.312" x2="724.3" y2="193.312" style="stroke:#181818;stroke-width:1;"/><line x1="716.3" y1="196.312" x2="724.3" y2="196.312" style="stroke:#181818;stroke-width:1;"/><line x1="720.3" y1="197.312" x2="720.3" y2="189.312" style="stroke:#181818;stroke-width:1;"/><line x1="720.3" y1="240.602" x2="726.3" y2="248.602" style="stroke:#181818;stroke-width:1;"/><line x1="720.3" y1="240.602" x2="714.3" y2="248.602" style="stroke:#181818;stroke-width:1;"/><line x1="720.3" y1="240.602" x2="720.3" y2="248.602" style="stroke:#181818;stroke-width:1;"/><ellipse cx="720.3" cy="234.602" rx="4" ry="4" fill="none" style="stroke:#181818;stroke-width:1;"/><text x="688.3" y="215.892" fill="#000" font-size="13" textLength="31.088" font-family="'Thonburi'">ตัวคุย</text></g><!--link models to ai_configs--><g class="link" data-entity-1="ent0008" data-entity-2="ent0007" id="lnk21" data-source-line="122" data-link-type="crowfoot"><path d="M656.86,197.312 C656.86,216.362 656.86,211.082 656.86,230.602" style="stroke:#181818;stroke-width:1;" fill="none" id="models-ai_configs-1" codeLine="122"/><line x1="652.86" y1="193.312" x2="660.86" y2="193.312" style="stroke:#181818;stroke-width:1;"/><line x1="652.86" y1="196.312" x2="660.86" y2="196.312" style="stroke:#181818;stroke-width:1;"/><line x1="656.86" y1="197.312" x2="656.86" y2="189.312" style="stroke:#181818;stroke-width:1;"/><line x1="656.86" y1="240.602" x2="662.86" y2="248.602" style="stroke:#181818;stroke-width:1;"/><line x1="656.86" y1="240.602" x2="650.86" y2="248.602" style="stroke:#181818;stroke-width:1;"/><line x1="656.86" y1="240.602" x2="656.86" y2="248.602" style="stroke:#181818;stroke-width:1;"/><ellipse cx="656.86" cy="234.602" rx="4" ry="4" fill="none" style="stroke:#181818;stroke-width:1;"/><text x="595.86" y="215.892" fill="#000" font-size="13" textLength="60.572" font-family="'Thonburi'">ตัววิเคราะห์</text></g><?plantuml-src jLPjYnit4Fw-lsB8bvpJEBGfb1928AK4Iaj9U_qMWb5tPLkztTLsfKthn85p6pYdzAClnrrA80d1q1BIwrlaVoFwIpgQVRbrlBQNGE4uIvhHpADd7etsF5XpQCqVrZod_mTsiM_DaLrCQNfapTyuXY5BaX4aJ0-179wxTVFCcebT_6ZDJtRn47Pst-lkVjY1Tp3aYJMdrXnJW7-Sb_kZ9CkxuVedkE_o-x1x-OEETnxYB1ZmYy22ICGNCSu3Q_wqvWThNbhp0iF2l_ipMdRuNheOBjuJQ_wYbQSqVMhDwzBX4UK_0ALbEWA2T8fWSO3Pr4Xf7a4e1x3p9G-40fU50hdaCu8yTviMFzi5elYDKCpe10jh7jl50qewfS7CiM3DAt9wrO428New1wJf6644CjDGsvUpDtsZ2fxQ4t72KXP1mFii2_KD6UlFMSJXt5T36N-TfU9SpKaDMI2_4_40-YnKl6O9HSprAE4WKpsKtb0477oH-Y7FnpnAz0WYZiP0UPuMEkJmyKT4zCtTBpxpF1xZuWWonLC5zpo02pJkYG2kG9RXpzMhDp-zTWqjtIwPNSxUcO_ctslqoMBnRSR9BmaIrcE-pnFDWnxJpab4N6c6QEvI33_bhD5ulqAak592nYMeOhe1rmhi6xaPzsgcCuK64j1ZfoSpWp4iZ-UaitsIPLwetvqcd3Wcf1pKrNoRPrbvywlJTduT5WVMJ4iWwLfEGgPq3vSK6_0c3p-KQZDbnUQIiZBMUigQI2rOeohpEnXvNPd9Ooc7yw6ugKIP8Ttc5xeV3ud1AJ5uG0oUqEqv8cVIRv5W32B2SFWRIfzfn8P3fOM_nrD70LuJH7IMAYGs-g5aDCCRSZQhrzrTr5FgVrM13Wd22S4fnlL2jvKfqvhvmmXd9UrdAnkORwfDmNpA4xpDAnROYRCm1CUZwtE7TA3vHZ7kKwzwJOURTEfa4ykqq1SXxr7hhqWDkFBBWkou1CLpaRCt9tucPGi-xhHbAZzNoLB3ALjh4paMFTH2NmoQp9eDL87_rksj8gcTTliTRIC8XCR2i593FlrV3de1y248ID-L7B121kLUodgBHefIu9LMxaJVA7nyI88gmTRBQogOKQSySTN6noVJFIttUEnu5h4Z3X--XjMbE_XcIqICF4rbIbWVqPixAK7FS2Do7M6CtATMePP58DhgPLZbSRaG_f1X0vO13vl99dkIIiorfbWn2qTtyHNQ4AJosHIenGafHTNfL_8jdmnptS7FWIKMO_UvqNJdsoB83r12Q3ZE2WPqUBkC-TV9UDpjodlLXu5NVI4KXlBvywfti33KUlJAfh8hNO5tBrsAuIqQgrU66CkjsShcuDK4kjrK9F1Ancix2iUc5j3MVNrpA3JMCbqxx_NPFEy_?></g></svg>