<svg xmlns="http://www.w3.org/2000/svg" xmlns:xlink="http://www.w3.org/1999/xlink" version="1.1" data-diagram-type="CLASS" style="width:3643px;height:1063px;background:#FFFFFF;" width="3643px" height="1063px" viewBox="0 0 3643 1063" zoomAndPan="magnify" preserveAspectRatio="none" contentStyleType="text/css"><?plantuml 1.2026.7?><defs/><g font-family="sans-serif" lengthAdjust="spacing"><g class="title" data-source-line="15"><text x="1710.871" y="26.078" fill="#000" font-size="14" textLength="214.971" font-weight="700" font-family="'Thonburi'">H6 — Worker ทำรายงาน [S4 S7]</text></g><!--cluster workers/--><g class="cluster" data-qualified-name="workers." id="ent0001" data-source-line="17"><rect x="1802.23" y="82.732" width="250" height="129.81" fill="#F7F7F7" style="stroke:#000;stroke-width:1.5;" rx="2.5" ry="2.5"/><text x="1896.206" y="100.81" fill="#000" font-size="14" textLength="62.048" font-weight="700" font-family="'Thonburi'">workers/</text></g><!--cluster services/--><g class="cluster" data-qualified-name="services." id="ent0003" data-source-line="24"><rect x="566.23" y="318.012" width="2673" height="129.81" fill="#EEF4FF" style="stroke:#000;stroke-width:1.5;" rx="2.5" ry="2.5"/><text x="1871.145" y="336.09" fill="#000" font-size="14" textLength="63.17" font-weight="700" font-family="'Thonburi'">services/</text></g><!--cluster clients/--><g class="cluster" data-qualified-name="clients." id="ent0008" data-source-line="41"><rect x="1122.23" y="480.822" width="1950" height="245.45" fill="#FFF4E8" style="stroke:#000;stroke-width:1.5;" rx="2.5" ry="2.5"/><text x="2071.573" y="498.9" fill="#000" font-size="14" textLength="51.313" font-weight="700" font-family="'Thonburi'">clients/</text></g><!--cluster models/--><g class="cluster" data-qualified-name="models." id="ent0011" data-source-line="57"><rect x="848.23" y="777.272" width="811" height="272.72" fill="#F0FFF0" style="stroke:#000;stroke-width:1.5;" rx="2.5" ry="2.5"/><text x="1226.009" y="795.35" fill="#000" font-size="14" textLength="55.442" font-weight="700" font-family="'Thonburi'">models/</text></g><!--class W--><g class="entity" data-qualified-name="workers..W" id="ent0002" data-source-line="18"><rect x="1818.24" y="120.732" width="217.991" height="75.816" fill="#F1F1F1" style="stroke:#181818;stroke-width:0.5;" rx="2.5" ry="2.5"/><text x="1893.986" y="141.81" fill="#000" font-size="14" textLength="66.5" font-family="'Thonburi'">worker.py</text><line x1="1819.24" y1="150.004" x2="2035.231" y2="150.004" style="stroke:#181818;stroke-width:0.5;"/><text x="1824.24" y="170.082" fill="#000" font-size="14" textLength="168.629" font-family="'Thonburi'">handle(job: Job) -> None</text><text x="1824.24" y="189.354" fill="#000" font-size="14" textLength="205.991" font-family="'Thonburi'">run_analyse(job: Job) -> None</text></g><!--class SESS--><g class="entity" data-qualified-name="services..SESS" id="ent0004" data-source-line="25"><rect x="2011.87" y="356.012" width="422.736" height="75.816" fill="#F1F1F1" style="stroke:#181818;stroke-width:0.5;" rx="2.5" ry="2.5"/><text x="2188.202" y="377.09" fill="#000" font-size="14" textLength="70.071" font-family="'Thonburi'">session.py</text><line x1="2012.87" y1="385.284" x2="2433.606" y2="385.284" style="stroke:#181818;stroke-width:0.5;"/><text x="2017.87" y="405.362" fill="#000" font-size="14" textLength="410.736" font-family="'Thonburi'">read_transcript(session_id: UUID) -> list[TranscriptMessage]</text><text x="2017.87" y="424.634" fill="#000" font-size="14" textLength="283.374" font-family="'Thonburi'">mark_analysed(session_id: UUID) -> None</text></g><!--class PROMPT--><g class="entity" data-qualified-name="services..PROMPT" id="ent0005" data-source-line="29"><rect x="1283.31" y="356.012" width="693.849" height="75.816" fill="#F1F1F1" style="stroke:#181818;stroke-width:0.5;" rx="2.5" ry="2.5"/><text x="1595.161" y="377.09" fill="#000" font-size="14" textLength="70.148" font-family="'Thonburi'">prompt.py</text><line x1="1284.31" y1="385.284" x2="1976.159" y2="385.284" style="stroke:#181818;stroke-width:0.5;"/><text x="1289.31" y="405.362" fill="#000" font-size="14" textLength="182.509" font-family="'Thonburi'">latest_config() -> AiConfig</text><text x="1289.31" y="424.634" fill="#000" font-size="14" textLength="681.849" font-family="'Thonburi'">build_analyse_context(config: AiConfig, transcript: list[TranscriptMessage]) -> list[ContextMessage]</text></g><!--class ANA--><g class="entity" data-qualified-name="services..ANA" id="ent0006" data-source-line="33"><rect x="582.39" y="365.642" width="665.685" height="56.544" fill="#F1F1F1" style="stroke:#181818;stroke-width:0.5;" rx="2.5" ry="2.5"/><text x="877.118" y="386.72" fill="#000" font-size="14" textLength="76.229" font-family="'Thonburi'">analyser.py</text><line x1="583.39" y1="394.914" x2="1247.075" y2="394.914" style="stroke:#181818;stroke-width:0.5;"/><text x="588.39" y="414.992" fill="#000" font-size="14" textLength="653.685" font-family="'Thonburi'">analyse(session_id: UUID, config: AiConfig, messages: list[ContextMessage]) -> list[ReportDraft]</text></g><!--class REP--><g class="entity" data-qualified-name="services..REP" id="ent0007" data-source-line="36"><rect x="2469.64" y="365.642" width="753.196" height="56.544" fill="#F1F1F1" style="stroke:#181818;stroke-width:0.5;" rx="2.5" ry="2.5"/><text x="2814.902" y="386.72" fill="#000" font-size="14" textLength="62.672" font-family="'Thonburi'">report.py</text><line x1="2470.64" y1="394.914" x2="3221.836" y2="394.914" style="stroke:#181818;stroke-width:0.5;"/><text x="2475.64" y="414.992" fill="#000" font-size="14" textLength="741.196" font-family="'Thonburi'">save(session_id: UUID, config: AiConfig, drafts: list[ReportDraft], transcript: list[TranscriptMessage]) -> None</text></g><!--class CL_DB--><g class="entity" data-qualified-name="clients..CL_DB" id="ent0009" data-source-line="42"><rect x="1821.79" y="518.822" width="1234.883" height="191.447" fill="#F1F1F1" style="stroke:#181818;stroke-width:0.5;" rx="2.5" ry="2.5"/><text x="2398.096" y="539.9" fill="#000" font-size="14" textLength="82.272" font-family="'Thonburi'">database.py</text><line x1="1822.79" y1="548.094" x2="3055.673" y2="548.094" style="stroke:#181818;stroke-width:0.5;"/><text x="1827.79" y="568.172" fill="#000" font-size="14" textLength="421.477" font-family="'Thonburi'">select_transcript(session_id: UUID) -> list[TranscriptMessage]</text><text x="1827.79" y="587.444" fill="#000" font-size="14" textLength="252.58" font-family="'Thonburi'">select_latest_ai_config() -> AiConfig</text><text x="1827.79" y="606.716" fill="#000" font-size="14" textLength="296.105" font-family="'Thonburi'">select_prompt(prompt_id: UUID) -> Prompt</text><text x="1827.79" y="625.987" fill="#000" font-size="14" textLength="282.259" font-family="'Thonburi'">select_model(model_id: UUID) -> AiModel</text><text x="1827.79" y="645.259" fill="#000" font-size="14" textLength="1222.883" font-family="'Thonburi'">insert_ai_call(session_id: UUID, ai_config_id: UUID, kind: "communicator" | "analyser", request: list[ContextMessage], reply: AiReply, status: "ok" | "error", error: str | None) -> None</text><text x="1827.79" y="664.531" fill="#000" font-size="14" textLength="797.984" font-family="'Thonburi'">insert_report(session_id: UUID, ai_config_id: UUID, desc: str, tags: list[str], lat: float | None, lng: float | None) -> UUID</text><text x="1827.79" y="683.803" fill="#000" font-size="14" textLength="481.179" font-family="'Thonburi'">link_attachments(report_id: UUID, attachment_ids: list[UUID]) -> None</text><text x="1827.79" y="703.075" fill="#000" font-size="14" textLength="283.374" font-family="'Thonburi'">mark_analysed(session_id: UUID) -> None</text></g><!--class CL_AI--><g class="entity" data-qualified-name="clients..CL_AI" id="ent0010" data-source-line="52"><rect x="1137.88" y="586.282" width="648.705" height="56.544" fill="#F1F1F1" style="stroke:#181818;stroke-width:0.5;" rx="2.5" ry="2.5"/><text x="1446.379" y="607.36" fill="#000" font-size="14" textLength="31.708" font-family="'Thonburi'">ai.py</text><line x1="1138.88" y1="615.554" x2="1785.585" y2="615.554" style="stroke:#181818;stroke-width:0.5;"/><text x="1143.88" y="635.632" fill="#000" font-size="14" textLength="636.705" font-family="'Thonburi'">structured(model: str, messages: list[ContextMessage], schema: type[BaseModel]) -> AiReply</text></g><!--class M_MSG--><g class="entity" data-qualified-name="models..M_MSG" id="ent0012" data-source-line="58"><rect x="1256.89" y="815.272" width="386.686" height="218.719" fill="#F1F1F1" style="stroke:#181818;stroke-width:0.5;" rx="2.5" ry="2.5"/><text x="1410.303" y="836.35" fill="#000" font-size="14" textLength="79.86" font-family="'Thonburi'">message.py</text><line x1="1257.89" y1="844.544" x2="1642.576" y2="844.544" style="stroke:#181818;stroke-width:0.5;"/><text x="1262.89" y="864.622" fill="#000" font-size="14" textLength="374.686" font-family="'Thonburi'">TranscriptMessage  (ข้อความหนึ่งแถวของใบ อ่านจาก PSQL)</text><line x1="1257.89" y1="871.816" x2="1642.576" y2="871.816" style="stroke:#181818;stroke-width:1;"/><text x="1262.89" y="891.894" fill="#000" font-size="14" textLength="120.98" font-family="'Thonburi'">message_id: UUID</text><text x="1262.89" y="911.166" fill="#000" font-size="14" textLength="164.396" font-family="'Thonburi'">role: "user" | "assistant"</text><text x="1262.89" y="930.437" fill="#000" font-size="14" textLength="228.419" font-family="'Thonburi'">type: "text" | "image" | "location"</text><text x="1262.89" y="949.709" fill="#000" font-size="14" textLength="127.947" font-family="'Thonburi'">content: str | None</text><text x="1262.89" y="968.981" fill="#000" font-size="14" textLength="104.688" font-family="'Thonburi'">lat: float | None</text><text x="1262.89" y="988.253" fill="#000" font-size="14" textLength="107.445" font-family="'Thonburi'">lng: float | None</text><text x="1262.89" y="1007.525" fill="#000" font-size="14" textLength="187.835" font-family="'Thonburi'">attachment_id: UUID | None</text><text x="1262.89" y="1026.797" fill="#000" font-size="14" textLength="134.991" font-family="'Thonburi'">file_path: str | None</text></g><!--class M_REP--><g class="entity" data-qualified-name="models..M_REP" id="ent0013" data-source-line="70"><rect x="864.7" y="826.542" width="357.072" height="196.175" fill="#F1F1F1" style="stroke:#181818;stroke-width:0.5;" rx="2.5" ry="2.5"/><text x="1011.9" y="847.62" fill="#000" font-size="14" textLength="62.672" font-family="'Thonburi'">report.py</text><line x1="865.7" y1="855.814" x2="1220.772" y2="855.814" style="stroke:#181818;stroke-width:0.5;"/><text x="870.7" y="875.892" fill="#000" font-size="14" textLength="345.072" font-family="'Thonburi'">Analysis  (รูปแบบที่ AI ต้องตอบ — structured output)</text><line x1="865.7" y1="883.086" x2="1220.772" y2="883.086" style="stroke:#181818;stroke-width:1;"/><text x="870.7" y="903.164" fill="#000" font-size="14" textLength="170.144" font-family="'Thonburi'">reports: list[ReportDraft]</text><line x1="865.7" y1="910.357" x2="1220.772" y2="910.357" style="stroke:#181818;stroke-width:1;"/><line x1="865.7" y1="912.357" x2="1220.772" y2="912.357" style="stroke:#181818;stroke-width:1;"/><text x="870.7" y="930.436" fill="#000" font-size="14" textLength="239.498" font-family="'Thonburi'">ReportDraft  (รายงานหนึ่งใบที่ AI ร่าง)</text><line x1="865.7" y1="937.629" x2="1220.772" y2="937.629" style="stroke:#181818;stroke-width:1;"/><text x="870.7" y="957.707" fill="#000" font-size="14" textLength="58.893" font-family="'Thonburi'">desc: str</text><text x="870.7" y="976.979" fill="#000" font-size="14" textLength="89.682" font-family="'Thonburi'">tags: list[str]</text><text x="870.7" y="996.251" fill="#000" font-size="14" textLength="272.743" font-family="'Thonburi'">location: int | None  (เลขป้าย [ตำแหน่ง n])</text><text x="870.7" y="1015.523" fill="#000" font-size="14" textLength="219.204" font-family="'Thonburi'">images: list[int]  (เลขป้าย [รูป n])</text></g><g class="entity" data-qualified-name="GMN26" id="ent0027" data-source-line="98"><path d="M2071.29,46.272 L2071.29,154.642 L2036.66,158.642 L2071.29,162.642 L2071.29,271.016 A0,0 0 0 0 2071.29,271.016 L2499.17,271.016 A0,0 0 0 0 2499.17,271.016 L2499.17,56.272 L2489.17,46.272 L2071.29,46.272 A0,0 0 0 0 2071.29,46.272" style="stroke:#181818;stroke-width:0.5;" fill="#FEFFDD"/><path d="M2489.17,46.272 L2489.17,56.272 L2499.17,56.272 L2489.17,46.272" style="stroke:#181818;stroke-width:0.5;" fill="#FEFFDD"/><text x="2077.29" y="66.202" fill="#000" font-size="13" textLength="40.727" font-weight="700" font-family="'Thonburi'">handle</text><text x="2122.333" y="66.202" fill="#000" font-size="13" textLength="96.845" font-family="'Thonburi'">แยกงานตาม kind</text><text x="2077.29" y="84.097" fill="#000" font-size="13" textLength="174.647" font-family="'Thonburi'">chat → run_chat(job)  (H4)</text><text x="2077.29" y="101.992" fill="#000" font-size="13" textLength="174.632" font-family="'Thonburi'">analyse → run_analyse(job)</text><text x="2077.29" y="119.887" fill="#000" font-size="13" font-family="'Thonburi'"> </text><text x="2077.29" y="137.783" fill="#000" font-size="13" textLength="76.268" font-weight="700" font-family="'Thonburi'">run_analyse</text><text x="2157.875" y="137.783" fill="#000" font-size="13" textLength="104.711" font-family="'Thonburi'">งานวิเคราะห์หนึ่งใบ</text><text x="2077.29" y="155.678" fill="#000" font-size="13" textLength="217.461" font-family="'Thonburi'">1. config = prompt.latest_config()</text><text x="2077.29" y="173.573" fill="#000" font-size="13" textLength="319.109" font-family="'Thonburi'">2. transcript = session.read_transcript(session_id)</text><text x="2077.29" y="191.469" fill="#000" font-size="13" textLength="406.88" font-family="'Thonburi'">3. messages = prompt.build_analyse_context(config, transcript)</text><text x="2077.29" y="209.364" fill="#000" font-size="13" textLength="367.519" font-family="'Thonburi'">4. drafts = analyser.analyse(session_id, config, messages)</text><text x="2077.29" y="227.259" fill="#000" font-size="13" textLength="327.326" font-family="'Thonburi'">5. report.save(session_id, config, drafts, transcript)</text><text x="2077.29" y="245.155" fill="#000" font-size="13" textLength="333.648" font-family="'Thonburi'">6. session.mark_analysed(session_id) → ใบ analysed</text><text x="2077.29" y="263.05" fill="#000" font-size="13" textLength="399.999" font-family="'Thonburi'">drafts ว่าง (เช่นเรื่องพิพาทระหว่างคน) → ไม่มีรายงาน · ใบยัง analysed</text></g><g class="entity" data-qualified-name="GMN29" id="ent0030" data-source-line="113"><path d="M3257.75,362.072 L3257.75,425.758 L3628.714,425.758 L3628.714,372.072 L3618.714,362.072 L3257.75,362.072" style="stroke:#181818;stroke-width:0.5;" fill="#FEFFDD"/><path d="M3618.714,362.072 L3618.714,372.072 L3628.714,372.072 L3618.714,362.072" style="stroke:#181818;stroke-width:1;" fill="#FEFFDD"/><text x="3263.75" y="382.002" fill="#000" font-size="13" textLength="98.404" font-weight="700" font-family="'Thonburi'">read_transcript</text><text x="3366.47" y="382.002" fill="#000" font-size="13" textLength="151.399" font-family="'Thonburi'">ข้อความทั้งใบ เรียงตามเวลา</text><text x="3272.383" y="399.897" fill="#000" font-size="13" textLength="341.331" font-family="'Thonburi'">ทั้ง user และ assistant · รูปมี attachment_id + file_path</text><text x="3263.75" y="417.792" fill="#000" font-size="13" textLength="94.981" font-weight="700" font-family="'Thonburi'">mark_analysed</text><text x="3363.048" y="417.792" fill="#000" font-size="13" textLength="171.996" font-family="'Thonburi'">sessions.status → analysed</text></g><g class="entity" data-qualified-name="GMN32" id="ent0033" data-source-line="119"><path d="M663.19,537.972 L663.19,691.134 L1103.272,691.134 L1103.272,547.972 L1093.272,537.972 L663.19,537.972" style="stroke:#181818;stroke-width:0.5;" fill="#FEFFDD"/><path d="M1093.272,537.972 L1093.272,547.972 L1103.272,547.972 L1093.272,537.972" style="stroke:#181818;stroke-width:1;" fill="#FEFFDD"/><text x="669.19" y="557.902" fill="#000" font-size="13" textLength="142.213" font-weight="700" font-family="'Thonburi'">build_analyse_context</text><text x="815.719" y="557.902" fill="#000" font-size="13" textLength="272.553" font-family="'Thonburi'">select_prompt(config.analyzer_prompt_id)</text><text x="669.19" y="575.797" fill="#000" font-size="13" textLength="342.133" font-family="'Thonburi'">→ [system · text · prompt] + บทสนทนา (role ตามแถว)</text><text x="677.823" y="593.692" fill="#000" font-size="13" textLength="234.711" font-family="'Thonburi'">text → type text · content = ข้อความ</text><text x="677.823" y="611.587" fill="#000" font-size="13" textLength="357.586" font-family="'Thonburi'">image → [text "[รูป n]"] + [image · content = file_path]</text><text x="677.823" y="629.483" fill="#000" font-size="13" textLength="182.792" font-family="'Thonburi'">location → text "[ตำแหน่ง n]"</text><text x="669.19" y="647.378" fill="#000" font-size="13" textLength="242.912" font-family="'Thonburi'">n นับจาก 1 แยกชนิด ตามลำดับในบทสนทนา</text><text x="669.19" y="665.273" fill="#000" font-size="13" textLength="271.233" font-family="'Thonburi'">ป้ายให้ AI ตอบเป็นเลข ไม่ต้องลอก UUID หรือพิกัด</text><text x="669.19" y="683.169" fill="#000" font-size="13" textLength="417.676" font-family="'Thonburi'">tag ให้ AI เขียนเอง — คำสั่งอยู่ใน prompt (ตาราง prompts) ไม่อยู่ในโค้ด</text></g><g class="entity" data-qualified-name="GMN35" id="ent0036" data-source-line="130"><path d="M170.34,537.972 L170.34,691.134 L628.129,691.134 L628.129,547.972 L618.129,537.972 L170.34,537.972" style="stroke:#181818;stroke-width:0.5;" fill="#FEFFDD"/><path d="M618.129,537.972 L618.129,547.972 L628.129,547.972 L618.129,537.972" style="stroke:#181818;stroke-width:1;" fill="#FEFFDD"/><text x="176.34" y="557.902" fill="#000" font-size="13" textLength="46.983" font-weight="700" font-family="'Thonburi'">analyse</text><text x="176.34" y="575.797" fill="#000" font-size="13" textLength="256.405" font-family="'Thonburi'">select_model(config.analyzer_model_id)</text><text x="176.34" y="593.692" fill="#000" font-size="13" textLength="201.728" font-family="'Thonburi'">ลองได้ 3 ครั้ง ส่ง messages ชุดเดิม:</text><text x="184.973" y="611.587" fill="#000" font-size="13" textLength="344.475" font-family="'Thonburi'">reply = ai.structured(model.name, messages, Analysis)</text><text x="184.973" y="629.483" fill="#000" font-size="13" textLength="175.307" font-family="'Thonburi'">ตรวจ reply.text ด้วย Analysis</text><text x="193.606" y="647.378" fill="#000" font-size="13" textLength="277.535" font-family="'Thonburi'">ผ่าน → ai_calls (analyser · ok) → คืน reports</text><text x="193.606" y="665.273" fill="#000" font-size="13" textLength="419.524" font-family="'Thonburi'">ไม่ผ่าน → ai_calls (analyser · error · ข้อความที่ตรวจไม่ผ่าน) → ลองใหม่</text><text x="176.34" y="683.169" fill="#000" font-size="13" textLength="390.975" font-family="'Thonburi'">ไม่ผ่านครบ 3 ครั้ง → ใบ analyse_failed — นอก happy path (จดไว้)</text></g><g class="entity" data-qualified-name="GMN38" id="ent0039" data-source-line="141"><path d="M3091.68,537.972 L3091.68,691.134 L3506.793,691.134 L3506.793,547.972 L3496.793,537.972 L3091.68,537.972" style="stroke:#181818;stroke-width:0.5;" fill="#FEFFDD"/><path d="M3496.793,537.972 L3496.793,547.972 L3506.793,547.972 L3496.793,537.972" style="stroke:#181818;stroke-width:1;" fill="#FEFFDD"/><text x="3097.68" y="557.902" fill="#000" font-size="13" textLength="29.154" font-weight="700" font-family="'Thonburi'">save</text><text x="3131.15" y="557.902" fill="#000" font-size="13" textLength="88.75" font-family="'Thonburi'">ทุกใบใน drafts</text><text x="3097.68" y="575.797" fill="#000" font-size="13" textLength="322.968" font-family="'Thonburi'">ป้ายแปลงกลับด้วยกติกาเดียวกับ build_analyse_context:</text><text x="3106.313" y="593.692" fill="#000" font-size="13" textLength="385.48" font-family="'Thonburi'">รูป n = แถว image ลำดับที่ n · ตำแหน่ง n = แถว location ลำดับที่ n</text><text x="3097.68" y="611.587" fill="#000" font-size="13" textLength="321.851" font-family="'Thonburi'">location มีเลข → lat, lng ของแถวนั้น · ไม่มี → ว่าง [S4]</text><text x="3097.68" y="629.483" fill="#000" font-size="13" textLength="279.86" font-family="'Thonburi'">report_id = insert_report(...) [S7 สรุป + tag]</text><text x="3097.68" y="647.378" fill="#000" font-size="13" textLength="355.362" font-family="'Thonburi'">link_attachments(report_id, attachment_id ของรูปที่เลือก)</text><text x="3097.68" y="665.273" fill="#000" font-size="13" textLength="320.963" font-family="'Thonburi'">คำพูดเต็มของผู้แจ้งดูจาก session_id ของรายงาน ไม่เก็บซ้ำ</text><text x="3097.68" y="683.169" fill="#000" font-size="13" textLength="259.756" font-family="'Thonburi'">เลขที่ไม่มีป้ายคู่กัน — นอก happy path (จดไว้)</text></g><g class="entity" data-qualified-name="GMN41" id="ent0042" data-source-line="152"><path d="M2192.85,874.892 L2192.85,974.368 A0,0 0 0 0 2192.85,974.368 L2685.623,974.368 A0,0 0 0 0 2685.623,974.368 L2685.623,884.892 L2675.623,874.892 L2443.23,874.892 L2439.23,710.502 L2435.23,874.892 L2192.85,874.892 A0,0 0 0 0 2192.85,874.892" style="stroke:#181818;stroke-width:0.5;" fill="#FEFFDD"/><path d="M2675.623,874.892 L2675.623,884.892 L2685.623,884.892 L2675.623,874.892" style="stroke:#181818;stroke-width:0.5;" fill="#FEFFDD"/><text x="2198.85" y="894.822" fill="#000" font-size="13" textLength="107.951" font-weight="700" font-family="'Thonburi'">select_transcript</text><text x="2198.85" y="912.717" fill="#000" font-size="13" textLength="471.773" font-family="'Thonburi'">messages LEFT JOIN attachments WHERE session_id ORDER BY created_at</text><text x="2198.85" y="930.612" fill="#000" font-size="13" textLength="84.47" font-weight="700" font-family="'Thonburi'">insert_report</text><text x="2287.636" y="930.612" fill="#000" font-size="13" textLength="249.447" font-family="'Thonburi'">started_at = sessions.started_at ของใบ</text><text x="2198.85" y="948.507" fill="#000" font-size="13" textLength="109.266" font-weight="700" font-family="'Thonburi'">link_attachments</text><text x="2312.432" y="948.507" fill="#000" font-size="13" textLength="217.973" font-family="'Thonburi'">attachments.report_id = report_id</text><text x="2198.85" y="966.403" fill="#000" font-size="13" textLength="83.911" font-weight="700" font-family="'Thonburi'">insert_ai_call</text><text x="2287.077" y="966.403" fill="#000" font-size="13" textLength="193.68" font-family="'Thonburi'">status error เก็บข้อความใน error</text></g><g class="entity" data-qualified-name="GMN44" id="ent0045" data-source-line="160"><path d="M1678.59,883.842 L1678.59,965.423 L2091.885,965.423 L2091.885,893.842 L2081.885,883.842 L1678.59,883.842" style="stroke:#181818;stroke-width:0.5;" fill="#FEFFDD"/><path d="M2081.885,883.842 L2081.885,893.842 L2091.885,893.842 L2081.885,883.842" style="stroke:#181818;stroke-width:1;" fill="#FEFFDD"/><text x="1684.59" y="903.772" fill="#000" font-size="13" textLength="66.62" font-weight="700" font-family="'Thonburi'">structured</text><text x="1755.526" y="903.772" fill="#000" font-size="13" textLength="321.359" font-family="'Thonburi'">OpenAI SDK · structured output (ไม่ใช้ tool calling)</text><text x="1684.59" y="921.667" fill="#000" font-size="13" textLength="325.695" font-family="'Thonburi'">response_format = json_schema จาก schema ที่ส่งมา</text><text x="1684.59" y="939.562" fill="#000" font-size="13" textLength="209.737" font-family="'Thonburi'">ไม่ stream · คืนข้อความดิบ + token</text><text x="1684.59" y="957.457" fill="#000" font-size="13" textLength="285.914" font-family="'Thonburi'">ContextMessage → รูปแบบ OpenAI เหมือน chat</text></g><!--link W to SESS--><g class="link" data-entity-1="ent0002" data-entity-2="ent0004" id="lnk14" data-source-line="84" data-link-type="dependency"><path d="M1967.86,197.022 C1992.37,219.132 2024.52,247.352 2054.23,271.012 C2091.59,300.752 2131.263,329.376 2164.893,352.896" style="stroke:#181818;stroke-width:1;" fill="none" id="W-to-SESS" codeLine="84"/><polygon points="2168.99,355.762,2163.907,347.326,2164.893,352.896,2159.322,353.882,2168.99,355.762" fill="#181818" style="stroke:#181818;stroke-width:1;stroke-linejoin:miter;stroke-miterlimit:10;"/></g><!--link W to PROMPT--><g class="link" data-entity-1="ent0002" data-entity-2="ent0005" id="lnk15" data-source-line="85" data-link-type="dependency"><path d="M1879.85,196.862 C1824.33,240.472 1736.832,309.194 1681.382,352.744" style="stroke:#181818;stroke-width:1;" fill="none" id="W-to-PROMPT" codeLine="85"/><polygon points="1677.45,355.832,1686.999,353.419,1681.382,352.744,1682.057,347.127,1677.45,355.832" fill="#181818" style="stroke:#181818;stroke-width:1;stroke-linejoin:miter;stroke-miterlimit:10;"/></g><!--link W to ANA--><g class="link" data-entity-1="ent0002" data-entity-2="ent0006" id="lnk16" data-source-line="86" data-link-type="dependency"><path d="M1817.81,184.242 C1686.66,213.792 1460.28,265.022 1266.23,310.012 C1187.85,328.182 1104.585,347.847 1036.245,364.077" style="stroke:#181818;stroke-width:1;" fill="none" id="W-to-ANA" codeLine="86"/><polygon points="1031.38,365.232,1041.061,367.044,1036.245,364.077,1039.212,359.261,1031.38,365.232" fill="#181818" style="stroke:#181818;stroke-width:1;stroke-linejoin:miter;stroke-miterlimit:10;"/></g><!--link W to REP--><g class="link" data-entity-1="ent0002" data-entity-2="ent0007" id="lnk17" data-source-line="87" data-link-type="dependency"><path d="M1958.12,196.922 C1981.62,222.462 2016.29,254.572 2054.23,271.012 C2217.32,341.662 2276.56,283.002 2452.23,310.012 C2546.71,324.532 2647.807,346.083 2726.037,364.043" style="stroke:#181818;stroke-width:1;" fill="none" id="W-to-REP" codeLine="87"/><polygon points="2730.91,365.162,2723.033,359.249,2726.037,364.043,2721.243,367.047,2730.91,365.162" fill="#181818" style="stroke:#181818;stroke-width:1;stroke-linejoin:miter;stroke-miterlimit:10;"/></g><!--link SESS to CL_DB--><g class="link" data-entity-1="ent0004" data-entity-2="ent0009" id="lnk18" data-source-line="88" data-link-type="dependency"><path d="M2259.88,432.002 C2283.47,455.882 2311.767,484.524 2342.047,515.184" style="stroke:#181818;stroke-width:1;" fill="none" id="SESS-to-CL_DB" codeLine="88"/><polygon points="2345.56,518.742,2342.082,509.528,2342.047,515.184,2336.39,515.149,2345.56,518.742" fill="#181818" style="stroke:#181818;stroke-width:1;stroke-linejoin:miter;stroke-miterlimit:10;"/></g><!--link PROMPT to CL_DB--><g class="link" data-entity-1="ent0005" data-entity-2="ent0009" id="lnk19" data-source-line="89" data-link-type="dependency"><path d="M1768.39,432.252 C1856.28,456.002 1969.533,486.617 2082.133,517.047" style="stroke:#181818;stroke-width:1;" fill="none" id="PROMPT-to-CL_DB" codeLine="89"/><polygon points="2086.96,518.352,2079.315,512.142,2082.133,517.047,2077.228,519.865,2086.96,518.352" fill="#181818" style="stroke:#181818;stroke-width:1;stroke-linejoin:miter;stroke-miterlimit:10;"/></g><!--link ANA to CL_DB--><g class="link" data-entity-1="ent0006" data-entity-2="ent0009" id="lnk20" data-source-line="90" data-link-type="dependency"><path d="M1048.8,422.632 C1114.06,435.012 1193.94,448.452 1266.23,455.822 C1504.23,480.112 1566.87,443.042 1804.23,472.822 C1889.1,483.472 1974.461,499.095 2059.461,517.295" style="stroke:#181818;stroke-width:1;" fill="none" id="ANA-to-CL_DB" codeLine="90"/><polygon points="2064.35,518.342,2056.387,512.546,2059.461,517.295,2054.712,520.369,2064.35,518.342" fill="#181818" style="stroke:#181818;stroke-width:1;stroke-linejoin:miter;stroke-miterlimit:10;"/></g><!--link ANA to CL_AI--><g class="link" data-entity-1="ent0006" data-entity-2="ent0010" id="lnk21" data-source-line="91" data-link-type="dependency"><path d="M989.81,422.512 C1029.04,437.182 1077.85,455.672 1121.23,472.822 C1217.57,510.912 1323.691,555.113 1392.171,583.923" style="stroke:#181818;stroke-width:1;" fill="none" id="ANA-to-CL_AI" codeLine="91"/><polygon points="1396.78,585.862,1390.035,578.685,1392.171,583.923,1386.933,586.059,1396.78,585.862" fill="#181818" style="stroke:#181818;stroke-width:1;stroke-linejoin:miter;stroke-miterlimit:10;"/></g><!--link REP to CL_DB--><g class="link" data-entity-1="ent0007" data-entity-2="ent0009" id="lnk22" data-source-line="92" data-link-type="dependency"><path d="M2794.69,422.612 C2749.45,446.912 2685.335,481.356 2620.485,516.186" style="stroke:#181818;stroke-width:1;" fill="none" id="REP-to-CL_DB" codeLine="92"/><polygon points="2616.08,518.552,2625.901,517.817,2620.485,516.186,2622.116,510.77,2616.08,518.552" fill="#181818" style="stroke:#181818;stroke-width:1;stroke-linejoin:miter;stroke-miterlimit:10;"/></g><!--link CL_DB to M_MSG--><g class="link" data-entity-1="ent0009" data-entity-2="ent0012" id="lnk23" data-source-line="93" data-link-type="dependency"><path d="M1936.03,710.732 C1795.67,738.102 1676.77,762.462 1661.23,769.272 C1633.7,781.352 1610.416,794.702 1584.906,812.032" style="stroke:#181818;stroke-width:1;stroke-dasharray:7,7;" fill="none" id="CL_DB-to-M_MSG" codeLine="93"/><polygon points="1580.77,814.842,1590.462,813.093,1584.906,812.032,1585.967,806.476,1580.77,814.842" fill="#181818" style="stroke:#181818;stroke-width:1;stroke-linejoin:miter;stroke-miterlimit:10;"/><text x="1774.83" y="758.202" fill="#000" font-size="13" textLength="16.367" font-family="'Thonburi'">คืน</text></g><!--link CL_AI to M_REP--><g class="link" data-entity-1="ent0010" data-entity-2="ent0013" id="lnk24" data-source-line="94" data-link-type="dependency"><path d="M1420.58,643.112 C1375.37,673.292 1301.3,723.512 1239.23,769.272 C1214.83,787.262 1193.061,803.884 1168.581,823.004" style="stroke:#181818;stroke-width:1;stroke-dasharray:7,7;" fill="none" id="CL_AI-to-M_REP" codeLine="94"/><polygon points="1164.64,826.082,1174.195,823.694,1168.581,823.004,1169.271,817.39,1164.64,826.082" fill="#181818" style="stroke:#181818;stroke-width:1;stroke-linejoin:miter;stroke-miterlimit:10;"/><text x="1276.11" y="758.202" fill="#000" font-size="13" textLength="47.597" font-family="'Thonburi'">schema</text></g><!--link ANA to M_REP--><g class="link" data-entity-1="ent0006" data-entity-2="ent0013" id="lnk25" data-source-line="95" data-link-type="dependency"><path d="M581.91,405.172 C365.9,415.372 118.53,435.162 84.23,472.822 C6,558.742 10.46,644.502 84.23,734.272 C181.08,852.112 609.731,897.487 859.471,914.267" style="stroke:#181818;stroke-width:1;stroke-dasharray:7,7;" fill="none" id="ANA-to-M_REP" codeLine="95"/><polygon points="864.46,914.602,855.748,910.008,859.471,914.267,855.212,917.99,864.46,914.602" fill="#181818" style="stroke:#181818;stroke-width:1;stroke-linejoin:miter;stroke-miterlimit:10;"/><text x="85.23" y="620.982" fill="#000" font-size="13" textLength="67.046" font-family="'Thonburi'">ตรวจรูปแบบ</text></g><!--link GMN29 to SESS--><g class="link" data-entity-1="ent0030" data-entity-2="ent0004" id="lnk31" data-source-line="113" data-link-type="association"><path d="M3391.41,361.752 C3347.94,336.772 3283.26,304.162 3221.73,290.512 C3140.16,272.412 2551.65,274.022 2469.73,290.512 C2407.63,303.012 2341.68,331.582 2293.63,355.532" style="stroke:#181818;stroke-width:1;stroke-dasharray:7,7;" fill="none" id="GMN29-SESS"/></g><!--link PROMPT to GMN32--><g class="link" data-entity-1="ent0005" data-entity-2="ent0033" id="lnk34" data-source-line="119" data-link-type="association"><path d="M1416.74,432.272 C1367.08,440.482 1314.37,448.812 1265.23,455.822 C1201.87,464.872 1182.88,452.372 1122.23,472.822 C1076.61,488.212 1030.16,513.052 990.49,537.612" style="stroke:#181818;stroke-width:1;stroke-dasharray:7,7;" fill="none" id="PROMPT-GMN32"/></g><!--link ANA to GMN35--><g class="link" data-entity-1="ent0006" data-entity-2="ent0036" id="lnk37" data-source-line="130" data-link-type="association"><path d="M796.5,422.612 C748.62,435.462 693.42,452.442 645.23,472.822 C602.53,490.892 557.92,514.732 518.61,537.642" style="stroke:#181818;stroke-width:1;stroke-dasharray:7,7;" fill="none" id="ANA-GMN35"/></g><!--link REP to GMN38--><g class="link" data-entity-1="ent0007" data-entity-2="ent0039" id="lnk40" data-source-line="141" data-link-type="association"><path d="M2941.84,422.652 C2982.82,435.862 3030.72,453.102 3072.23,472.822 C3111.19,491.332 3151.79,514.962 3187.72,537.552" style="stroke:#181818;stroke-width:1;stroke-dasharray:7,7;" fill="none" id="REP-GMN38"/></g><!--link CL_AI to GMN44--><g class="link" data-entity-1="ent0010" data-entity-2="ent0045" id="lnk46" data-source-line="160" data-link-type="association"><path d="M1513.62,643.222 C1557.3,667.492 1621.05,704.682 1673.23,742.272 C1735.13,786.862 1801.11,845.232 1842.72,883.552" style="stroke:#181818;stroke-width:1;stroke-dasharray:7,7;" fill="none" id="CL_AI-GMN44"/></g><?plantuml-src hLbjRnl74Vv-lsB1V0Y9ohJTo2yWOWEoBTLABTaL7HY580WdSYLTTBnZxvP9bJQ0PGkbvEPJeTIW4hYG3S653GEnNJV7h_qbX_oIpilktTxfg0fjOKCYTsTdPcUUUTdHn-BsPV4WZBPa9DBaQPgyJvCNQV8kJPwdoP0-ZCJF3mz4UrhKJswboL6QV4YJPsdoZpJPIPEtQNAGZX_I-a_fU2zDtgJ93saoJiVxwHW8zl037l-UY67bDH4dSB0n9TfNJXFpYhOIF8oyZjFaHw7SZORpCIZ_Ds8uH9xZRzFa2NqTaJ9FIPDtTC4F-1aNNv4c8_h_WTHxIEm_aEGTyQ-V1EbtRAun5DT4EjubIR3uBLCSu-MGxkzmcYWUfyakSYhoozP9sUyCKzPhHzo-rEAZXwBZXx7iClVC02_HmiXnrvZdHpGTQ75HdwEV8o80NxpayuTqvrUqyPH-iXNUQZVmILJaEJbfZxc8U-tVt055kpBsDWBnqSNBLyJFV_gBK39MyEtID7thX5s9UrVfIe-8vHjIu2N9ES9x0gB6xEKHtNc8DDeTe-p-HFdEN6qeUZAEtGqPYxhQxalXXnrNUM60b_9THR-2ZGOXinC6AWfzdn3yWhn-E46mCVQT-SLPGLScnA1FZuW6OMRymvSP6isEYDkE0SeRKlgLLXfNTWeWGxd7p5_KvxlIRLK9p5YYa3Ss6Xijq4E82rT5hA91HmqYsUnrwS8zCBiVduzaFunKixyjM6yn4xZ-Tkp5Q9qbshmLkUjaB0WIHWaWPb_Cp0lI-941vyXSQUZ4MrxGToEt1xvVTmU-cWFpBhezAMhtDyDWRH1vDOietdIxuLTUi27MNJ-Mrax7T-DuHgd8MnieEGzUQdjVIt718kcxdIrmSbjj-r94igFSOCENpgO7iEfuKSTybhs-sWP8zDPa53kEyXJGGzv2O_odtBKCYQjzPSLnj31H-ufEnEThugEvA_XF_C4HhAxP1AFMX1kB1xGbnAORT7rP_o9SQudFmhM6E7TTB8Q1fCre4AowPFfgYc-SRopfiOo-z3gInC_EpatFpTdYOu0zmDp8Ry-ssrg5IBhTLHMvGTo9lBwgQyfLhziIdty-Vuia-bwibkzdH0iSH2l4eET6MqRFRlNnJE5CdtuKWksDElUMxYxSkwyLWZ24PB0AVbttDkfqViQxITzeVstW-LqZ4CcK_BsgCtah8vqI-PrQa_JFxtQJsLWNivJLiZBlpIpEQ5sDUygtdX8dzJ6PfrKfCLV5Yh2I7bbWaXPBi_Uq5h7xvTbKw29Jeu0jv-pMgiHUn_Tae1ZvStFJirTjw7LTvQwviJHwtxopUkk6qLpw49t_4_mq2uqQrviC74t9qAlphwASUxHc4rDAhDFF8kcCju2BHEi500wMxVf-XISohQmrI5RmkTO9Uxr1u44L2gEQ-6CEjjeKXERl1d2fQi3WTj_VHlSkuOSfoEUk6e1tQ-4MSP9H528R-jt2T0-hwBzYcj7QCxZEg3oKxmvndC8AO105tq4jy4HBhFiXL5CMDuKbjRX46Y0hZdWlW0oYbDlPx26EwgoBhKEs2Oj676wj5E_oN-KYrxEW2ILCGzDKnowxNr_tz2W69tGsPGzgCdONopS0zWIJ5OqPyjI9yD5r5wFd0iJF1Jjwj3oZuSBgGljNMiCJ0I6mnQtibgXNIVwfsnLi3lvAkuzqAyBzOMK3HHrRWmIUEyT6PccPMRcCXBu4w0qGkGHZC3q0Cb0rsaPpm3RQYhQz7d2WJwO3OpfAvu6oqMgAGX51l5h65ITb6ooiehszxlbojU-gpPAGYObsOJLFjLahf5yJO_DaE3GjCJu3g14gjtflqCJOMUJ84k50zGUgO5sMNPMaQVlQDVfbjs7L3vkIon-VrE-5SVQme40Ms-ouOdYpsRNBMf0xZELH2-prZWbKtzFLKIEnNDaoYs25XH8GZ0HWjt8Q8srmVPY2w06eVPtw6VsHUmdz1Igr_WGkTAZhmIzKWXpTTUGBMDShlytCEmY1V8zhMBDvNGSazk2x-31DHWud4Tx3KosT4uYXlKo6UK5nk7SIJ8uJX0gwLszZKubmNJo06t-wTfqxna_FhrqNH4elmDph-ab1rGNnl0cXWIygx2Nn2pQI3J3nxMcqeCwK6ONLRJOSbcSjiz0pl1mhmGViBZPrJmAlMTq0bfez8Ffbq-f5WD1qhfFxL3prIJD_sMNCJ-iKxOu76KmtTNS4nxD-xsHxPxggl13WuKjD7RRDKYkMapFpijJBpUn-aqfNWxoZCxJPXwDQMtI32MCTEKzeOMJ61DcqP6Z6AS_CQ_A5Tfd5WxmvCa8BxzUAHn2E0dHgqK_GN4KPT0L2M0FPb-k4OmfLXbRHenfUbVMhF5WGnHc8_PP-ICSWUxoZ_6AV5LYTH3xXoMeKZpHC1FAZjr15n2_oii7A5zn5gckNnKtkmyY2auon5YeLzj0SEbqHpqgyQjvswygOOdH-BQFLh9L5IA7OvNWxLh973tHWWR-PPWKkKZcx4NKiuA8uay0UWRCqSQ4v3GvD34zTh74sLUMsFB-pKdIiLaZZDLHecMaA33Dh5okEdXLfFjLr1Hk9GD2rU69Z6fcBTiPyGWGG30VMfH4Mxt7Go2VrtAl2N0u2AwzDnGc8AVQ4HI0Qcc34acO7bTqW7FFaXxiLkX65BYuMPg2EEFlCXReDyiXxqlzjFYShJUKO7TX85ATbl1utRAtBXzFn8vI1LpcOZ7Ein0HogvWufMTM6TVcsTKWSn-RNdMNHi7xuXDXIe-9RvgzxXN6VEJfn0oF3yYKHotJQVdRcEwzPhdPRmPkJ-OvVYhh-newgUILczaq2PIi6Aq_puxG2JppGzPSSsxWvs8iwgRUO0Y4Mphtcdx2D8I6JUw8C_6Znn_djqcPzOC6OzQBL8amMXrRBuRNJEPCqCfuvx32KoThskgw2p7VrPWTwN3OTFlzRO690C6vHmOczSVxZSbWmsQFm8RbMDULfmI37NkahMleYM3UeIfmh6V-UjfwQ3lN39OvBjyPR740lZJ1UbWzgsff36Lfa8RxEj_gX5bEHLdd7h0lArDVWK-MCYUpSeHDHIK-IrFe86ZEwEqkh8TYzdGS6MVgBg3GAcYmMAt9SdiQKtdsiWTTYuE7PhFP0Aehmlvh35G7o7PuSFACe3GTi9JDAxhzvvbZarTtEAzmUdn6f9mblgESVMGngln3qm4TCTKbxzXA6XGx9cj4pwFz8VdapyJqFOLIzlZ9j2wrOHPMKNjAnHfoe_zB_F0ZXoEeFA7JYJjBi7Tcv-wBp-xEBrfkYCM3sxDBixPDxYxTcbqIDtuhEj3sAGb1eLX00GNSx2WtOegy_QUkogoMvXRCfmmGOcLzRzhGopuNTD0Pr2Y1JHodpwAlgl8evnEYFjMiy99aisO5XwJTxSi02ddxrgync4uC2B2nps3pc3hyVQ72q1UehnTiD2YquZuO2X9f6FN8Tb_4O7j-V0eBg6OXI_slJ5zmf5iR8mmraMwFKuwkHnFg25VMGmpOS4jYQYcEndH6ABzopSt9mg_rNtVf3rRqTiri-My0?></g></svg>