<svg xmlns="http://www.w3.org/2000/svg" xmlns:xlink="http://www.w3.org/1999/xlink" version="1.1" data-diagram-type="SEQUENCE" style="width:1168px;height:1391px;background:#FFFFFF;" width="1168px" height="1391px" viewBox="0 0 1168 1391" zoomAndPan="magnify" preserveAspectRatio="none" contentStyleType="text/css"><?plantuml 1.2026.7?><defs/><g font-family="sans-serif" lengthAdjust="spacing"><g class="title" data-source-line="7"><text x="447.286" y="31.078" fill="#000" font-size="14" textLength="272.108" font-weight="700" font-family="'Thonburi'">ข้อความหนึ่งข้อความ — เดินผ่านไฟล์ไหน [S2]</text></g><rect x="78.925" y="51.272" width="426.792" height="1325.536" fill="#F7F7F7" style="stroke:#181818;stroke-width:0.5;"/><text x="280.9" y="66.202" fill="#000" font-size="13" textLength="22.841" font-weight="700" font-family="'Thonburi'">app</text><rect x="474.204" y="51.272" width="583.829" height="1325.536" fill="#EEF4FF" style="stroke:#181818;stroke-width:0.5;"/><text x="736.79" y="66.202" fill="#000" font-size="13" textLength="58.657" font-weight="700" font-family="'Thonburi'">services/</text><rect x="1070.033" y="51.272" width="81.648" height="1325.536" fill="#FFF4E8" style="stroke:#181818;stroke-width:0.5;"/><text x="1087.033" y="66.202" fill="#000" font-size="13" textLength="47.648" font-weight="700" font-family="'Thonburi'">clients/</text><rect x="180.954" y="357.083" width="575.245" height="195.656" fill="none" style="stroke:#000;stroke-width:1.5;"/><rect x="384.013" y="652.425" width="313.044" height="106.828" fill="none" style="stroke:#000;stroke-width:1.5;"/><g><title>LINE</title><rect x="28.271" y="126.711" width="8" height="1190.553" fill="#000" fill-opacity="0"/><line x1="31.771" y1="126.711" x2="31.771" y2="1317.264" style="stroke:#181818;stroke-width:0.5;stroke-dasharray:5,5;"/></g><g><title>api.</title><rect x="108.166" y="126.711" width="8" height="1190.553" fill="#000" fill-opacity="0"/><line x1="111.666" y1="126.711" x2="111.666" y2="1317.264" style="stroke:#181818;stroke-width:0.5;stroke-dasharray:5,5;"/></g><g><title>controllers.</title><rect x="193.454" y="126.711" width="8" height="1190.553" fill="#000" fill-opacity="0"/><line x1="196.954" y1="126.711" x2="196.954" y2="1317.264" style="stroke:#181818;stroke-width:0.5;stroke-dasharray:5,5;"/></g><g><title>workers.</title><rect x="396.513" y="126.711" width="8" height="1190.553" fill="#000" fill-opacity="0"/><line x1="400.013" y1="126.711" x2="400.013" y2="1317.264" style="stroke:#181818;stroke-width:0.5;stroke-dasharray:5,5;"/></g><g><title>pdpa</title><rect x="498.217" y="126.711" width="8" height="1190.553" fill="#000" fill-opacity="0"/><line x1="501.717" y1="126.711" x2="501.717" y2="1317.264" style="stroke:#181818;stroke-width:0.5;stroke-dasharray:5,5;"/></g><g><title>session</title><rect x="677.557" y="126.711" width="8" height="1190.553" fill="#000" fill-opacity="0"/><line x1="681.057" y1="126.711" x2="681.057" y2="1317.264" style="stroke:#181818;stroke-width:0.5;stroke-dasharray:5,5;"/></g><g><title>job</title><rect x="736.699" y="126.711" width="8" height="1190.553" fill="#000" fill-opacity="0"/><line x1="740.199" y1="126.711" x2="740.199" y2="1317.264" style="stroke:#181818;stroke-width:0.5;stroke-dasharray:5,5;"/></g><g><title>attachment</title><rect x="810.476" y="126.711" width="8" height="1190.553" fill="#000" fill-opacity="0"/><line x1="813.976" y1="126.711" x2="813.976" y2="1317.264" style="stroke:#181818;stroke-width:0.5;stroke-dasharray:5,5;"/></g><g><title>prompt</title><rect x="898.542" y="126.711" width="8" height="1190.553" fill="#000" fill-opacity="0"/><line x1="902.042" y1="126.711" x2="902.042" y2="1317.264" style="stroke:#181818;stroke-width:0.5;stroke-dasharray:5,5;"/></g><g><title>communicator</title><rect x="995.405" y="126.711" width="8" height="1190.553" fill="#000" fill-opacity="0"/><line x1="998.905" y1="126.711" x2="998.905" y2="1317.264" style="stroke:#181818;stroke-width:0.5;stroke-dasharray:5,5;"/></g><g><title>line</title><rect x="1089.842" y="126.711" width="8" height="1190.553" fill="#000" fill-opacity="0"/><line x1="1093.342" y1="126.711" x2="1093.342" y2="1317.264" style="stroke:#181818;stroke-width:0.5;stroke-dasharray:5,5;"/></g><g><title>ai</title><rect x="1130.759" y="126.711" width="8" height="1190.553" fill="#000" fill-opacity="0"/><line x1="1134.259" y1="126.711" x2="1134.259" y2="1317.264" style="stroke:#181818;stroke-width:0.5;stroke-dasharray:5,5;"/></g><rect x="10" y="92.439" width="43.542" height="33.272" fill="#E2E2F0" style="stroke:#181818;stroke-width:0.5;" rx="2.5" ry="2.5"/><text x="17" y="115.517" fill="#000" font-size="14" textLength="29.542" font-family="'Thonburi'">LINE</text><rect x="82.925" y="73.167" width="57.482" height="52.544" fill="#E2E2F0" style="stroke:#181818;stroke-width:0.5;" rx="2.5" ry="2.5"/><text x="98.169" y="96.245" fill="#000" font-size="14" textLength="26.994" font-family="'Thonburi'">api/</text><text x="89.925" y="115.517" fill="#000" font-size="14" textLength="43.482" font-family="'Thonburi'">line.py</text><rect x="150.407" y="73.167" width="93.095" height="52.544" fill="#E2E2F0" style="stroke:#181818;stroke-width:0.5;" rx="2.5" ry="2.5"/><text x="157.407" y="96.245" fill="#000" font-size="14" textLength="79.095" font-family="'Thonburi'">controllers/</text><text x="175.213" y="115.517" fill="#000" font-size="14" textLength="43.482" font-family="'Thonburi'">line.py</text><rect x="359.763" y="73.167" width="80.5" height="52.544" fill="#E2E2F0" style="stroke:#181818;stroke-width:0.5;" rx="2.5" ry="2.5"/><text x="369.768" y="96.245" fill="#000" font-size="14" textLength="60.49" font-family="'Thonburi'">workers/</text><text x="366.763" y="115.517" fill="#000" font-size="14" textLength="66.5" font-family="'Thonburi'">worker.py</text><rect x="478.204" y="92.439" width="47.026" height="33.272" fill="#E2E2F0" style="stroke:#181818;stroke-width:0.5;" rx="2.5" ry="2.5"/><text x="485.204" y="115.517" fill="#000" font-size="14" textLength="33.026" font-family="'Thonburi'">pdpa</text><rect x="649.36" y="92.439" width="63.394" height="33.272" fill="#E2E2F0" style="stroke:#181818;stroke-width:0.5;" rx="2.5" ry="2.5"/><text x="656.36" y="115.517" fill="#000" font-size="14" textLength="49.394" font-family="'Thonburi'">session</text><rect x="722.754" y="92.439" width="34.891" height="33.272" fill="#E2E2F0" style="stroke:#181818;stroke-width:0.5;" rx="2.5" ry="2.5"/><text x="729.754" y="115.517" fill="#000" font-size="14" textLength="20.891" font-family="'Thonburi'">job</text><rect x="767.645" y="92.439" width="92.662" height="33.272" fill="#E2E2F0" style="stroke:#181818;stroke-width:0.5;" rx="2.5" ry="2.5"/><text x="774.645" y="115.517" fill="#000" font-size="14" textLength="78.662" font-family="'Thonburi'">attachment</text><rect x="870.307" y="92.439" width="63.47" height="33.272" fill="#E2E2F0" style="stroke:#181818;stroke-width:0.5;" rx="2.5" ry="2.5"/><text x="877.307" y="115.517" fill="#000" font-size="14" textLength="49.47" font-family="'Thonburi'">prompt</text><rect x="943.777" y="92.439" width="110.255" height="33.272" fill="#E2E2F0" style="stroke:#181818;stroke-width:0.5;" rx="2.5" ry="2.5"/><text x="950.777" y="115.517" fill="#000" font-size="14" textLength="96.255" font-family="'Thonburi'">communicator</text><rect x="1074.939" y="92.439" width="36.805" height="33.272" fill="#E2E2F0" style="stroke:#181818;stroke-width:0.5;" rx="2.5" ry="2.5"/><text x="1081.939" y="115.517" fill="#000" font-size="14" textLength="22.805" font-family="'Thonburi'">line</text><rect x="1121.744" y="92.439" width="25.03" height="33.272" fill="#E2E2F0" style="stroke:#181818;stroke-width:0.5;" rx="2.5" ry="2.5"/><text x="1128.744" y="115.517" fill="#000" font-size="14" textLength="11.03" font-family="'Thonburi'">ai</text><rect x="10" y="1317.264" width="43.542" height="33.272" fill="#E2E2F0" style="stroke:#181818;stroke-width:0.5;" rx="2.5" ry="2.5"/><text x="17" y="1340.342" fill="#000" font-size="14" textLength="29.542" font-family="'Thonburi'">LINE</text><rect x="82.925" y="1317.264" width="57.482" height="52.544" fill="#E2E2F0" style="stroke:#181818;stroke-width:0.5;" rx="2.5" ry="2.5"/><text x="98.169" y="1340.342" fill="#000" font-size="14" textLength="26.994" font-family="'Thonburi'">api/</text><text x="89.925" y="1359.614" fill="#000" font-size="14" textLength="43.482" font-family="'Thonburi'">line.py</text><rect x="150.407" y="1317.264" width="93.095" height="52.544" fill="#E2E2F0" style="stroke:#181818;stroke-width:0.5;" rx="2.5" ry="2.5"/><text x="157.407" y="1340.342" fill="#000" font-size="14" textLength="79.095" font-family="'Thonburi'">controllers/</text><text x="175.213" y="1359.614" fill="#000" font-size="14" textLength="43.482" font-family="'Thonburi'">line.py</text><rect x="359.763" y="1317.264" width="80.5" height="52.544" fill="#E2E2F0" style="stroke:#181818;stroke-width:0.5;" rx="2.5" ry="2.5"/><text x="369.768" y="1340.342" fill="#000" font-size="14" textLength="60.49" font-family="'Thonburi'">workers/</text><text x="366.763" y="1359.614" fill="#000" font-size="14" textLength="66.5" font-family="'Thonburi'">worker.py</text><rect x="478.204" y="1317.264" width="47.026" height="33.272" fill="#E2E2F0" style="stroke:#181818;stroke-width:0.5;" rx="2.5" ry="2.5"/><text x="485.204" y="1340.342" fill="#000" font-size="14" textLength="33.026" font-family="'Thonburi'">pdpa</text><rect x="649.36" y="1317.264" width="63.394" height="33.272" fill="#E2E2F0" style="stroke:#181818;stroke-width:0.5;" rx="2.5" ry="2.5"/><text x="656.36" y="1340.342" fill="#000" font-size="14" textLength="49.394" font-family="'Thonburi'">session</text><rect x="722.754" y="1317.264" width="34.891" height="33.272" fill="#E2E2F0" style="stroke:#181818;stroke-width:0.5;" rx="2.5" ry="2.5"/><text x="729.754" y="1340.342" fill="#000" font-size="14" textLength="20.891" font-family="'Thonburi'">job</text><rect x="767.645" y="1317.264" width="92.662" height="33.272" fill="#E2E2F0" style="stroke:#181818;stroke-width:0.5;" rx="2.5" ry="2.5"/><text x="774.645" y="1340.342" fill="#000" font-size="14" textLength="78.662" font-family="'Thonburi'">attachment</text><rect x="870.307" y="1317.264" width="63.47" height="33.272" fill="#E2E2F0" style="stroke:#181818;stroke-width:0.5;" rx="2.5" ry="2.5"/><text x="877.307" y="1340.342" fill="#000" font-size="14" textLength="49.47" font-family="'Thonburi'">prompt</text><rect x="943.777" y="1317.264" width="110.255" height="33.272" fill="#E2E2F0" style="stroke:#181818;stroke-width:0.5;" rx="2.5" ry="2.5"/><text x="950.777" y="1340.342" fill="#000" font-size="14" textLength="96.255" font-family="'Thonburi'">communicator</text><rect x="1074.939" y="1317.264" width="36.805" height="33.272" fill="#E2E2F0" style="stroke:#181818;stroke-width:0.5;" rx="2.5" ry="2.5"/><text x="1081.939" y="1340.342" fill="#000" font-size="14" textLength="22.805" font-family="'Thonburi'">line</text><rect x="1121.744" y="1317.264" width="25.03" height="33.272" fill="#E2E2F0" style="stroke:#181818;stroke-width:0.5;" rx="2.5" ry="2.5"/><text x="1128.744" y="1340.342" fill="#000" font-size="14" textLength="11.03" font-family="'Thonburi'">ai</text><polygon points="99.666,154.606,109.666,158.606,99.666,162.606,103.666,158.606" fill="#181818" style="stroke:#181818;stroke-width:1;stroke-linejoin:miter;stroke-miterlimit:10;"/><line x1="31.771" y1="158.606" x2="105.666" y2="158.606" style="stroke:#181818;stroke-width:1;"/><text x="43.771" y="153.641" fill="#000" font-size="13" textLength="55.895" font-family="'Thonburi'">webhook</text><polygon points="184.954,168.606,194.954,172.606,184.954,176.606,188.954,172.606" fill="#181818" style="stroke:#181818;stroke-width:1;stroke-linejoin:miter;stroke-miterlimit:10;"/><line x1="111.666" y1="172.606" x2="190.954" y2="172.606" style="stroke:#181818;stroke-width:1;"/><polygon points="1081.342,200.502,1091.342,204.502,1081.342,208.502,1085.342,204.502" fill="#181818" style="stroke:#181818;stroke-width:1;stroke-linejoin:miter;stroke-miterlimit:10;"/><line x1="196.954" y1="204.502" x2="1087.342" y2="204.502" style="stroke:#181818;stroke-width:1;"/><text x="614.164" y="199.536" fill="#000" font-size="13" textLength="61.968" font-family="'Thonburi'">เช็คลายเซ็น</text><polygon points="489.717,232.397,499.717,236.397,489.717,240.397,493.717,236.397" fill="#181818" style="stroke:#181818;stroke-width:1;stroke-linejoin:miter;stroke-miterlimit:10;"/><line x1="196.954" y1="236.397" x2="495.717" y2="236.397" style="stroke:#181818;stroke-width:1;"/><text x="315.594" y="231.431" fill="#000" font-size="13" textLength="67.483" font-family="'Thonburi'">ยอมรับแล้ว?</text><line x1="196.954" y1="268.292" x2="238.954" y2="268.292" style="stroke:#181818;stroke-width:1;"/><line x1="238.954" y1="268.292" x2="238.954" y2="281.292" style="stroke:#181818;stroke-width:1;"/><line x1="197.954" y1="281.292" x2="238.954" y2="281.292" style="stroke:#181818;stroke-width:1;"/><polygon points="207.954,277.292,197.954,281.292,207.954,285.292,203.954,281.292" fill="#181818" style="stroke:#181818;stroke-width:1;stroke-linejoin:miter;stroke-miterlimit:10;"/><text x="203.954" y="263.327" fill="#000" font-size="13" textLength="189.058" font-family="'Thonburi'">แกะ event → models/message</text><polygon points="669.057,309.187,679.057,313.187,669.057,317.187,673.057,313.187" fill="#181818" style="stroke:#181818;stroke-width:1;stroke-linejoin:miter;stroke-miterlimit:10;"/><line x1="196.954" y1="313.187" x2="675.057" y2="313.187" style="stroke:#181818;stroke-width:1;"/><text x="342.394" y="308.222" fill="#000" font-size="13" textLength="193.222" font-family="'Thonburi'">หา/สร้าง session + บันทึกข้อความ</text><polygon points="669.057,341.083,679.057,345.083,669.057,349.083,673.057,345.083" fill="#181818" style="stroke:#181818;stroke-width:1;stroke-linejoin:miter;stroke-miterlimit:10;"/><line x1="196.954" y1="345.083" x2="675.057" y2="345.083" style="stroke:#181818;stroke-width:1;"/><text x="326.866" y="340.117" fill="#000" font-size="13" textLength="224.28" font-family="'Thonburi'">ต่อ buffer + เวลาข้อความล่าสุด = ตอนนี้</text><path d="M180.954,357.083 L241.961,357.083 L241.961,366.978 L231.961,376.978 L180.954,376.978 L180.954,357.083" style="stroke:#000;stroke-width:1.5;" fill="#EEE"/><rect x="180.954" y="357.083" width="575.245" height="195.656" fill="none" style="stroke:#000;stroke-width:1.5;"/><text x="195.954" y="373.012" fill="#000" font-size="13" textLength="16.006" font-weight="700" font-family="'Thonburi'">alt</text><text x="256.961" y="371.716" fill="#000" font-size="11" textLength="33.232" font-weight="700" font-family="'Thonburi'">[IDLE]</text><polygon points="669.057,424.911,679.057,428.911,669.057,432.911,673.057,428.911" fill="#181818" style="stroke:#181818;stroke-width:1;stroke-linejoin:miter;stroke-miterlimit:10;"/><line x1="196.954" y1="428.911" x2="675.057" y2="428.911" style="stroke:#181818;stroke-width:1;"/><text x="380.622" y="406.05" fill="#000" font-size="13" textLength="116.766" font-family="'Thonburi'">IDLE → BUFFERING</text><text x="369.994" y="423.945" fill="#000" font-size="13" textLength="138.023" font-family="'Thonburi'">(คำสั่ง Redis คำสั่งเดียว)</text><polygon points="728.199,456.806,738.199,460.806,728.199,464.806,732.199,460.806" fill="#181818" style="stroke:#181818;stroke-width:1;stroke-linejoin:miter;stroke-miterlimit:10;"/><line x1="196.954" y1="460.806" x2="734.199" y2="460.806" style="stroke:#181818;stroke-width:1;"/><text x="435.219" y="455.841" fill="#000" font-size="13" textLength="66.716" font-family="'Thonburi'">ใบสั่งงานคุย</text><line x1="180.954" y1="469.806" x2="756.199" y2="469.806" style="stroke:#000;stroke-width:1;stroke-dasharray:2,2;"/><text x="185.954" y="484.439" fill="#000" font-size="11" textLength="102.356" font-weight="700" font-family="'Thonburi'">[BUFFERING อยู่แล้ว]</text><line x1="196.954" y1="531.739" x2="238.954" y2="531.739" style="stroke:#181818;stroke-width:1;"/><line x1="238.954" y1="531.739" x2="238.954" y2="544.739" style="stroke:#181818;stroke-width:1;"/><line x1="197.954" y1="544.739" x2="238.954" y2="544.739" style="stroke:#181818;stroke-width:1;"/><polygon points="207.954,540.739,197.954,544.739,207.954,548.739,203.954,544.739" fill="#181818" style="stroke:#181818;stroke-width:1;stroke-linejoin:miter;stroke-miterlimit:10;"/><text x="231.203" y="508.878" fill="#000" font-size="13" textLength="67.95" font-family="'Thonburi'">ไม่ใส่ใบใหม่</text><text x="203.954" y="526.773" fill="#000" font-size="13" textLength="122.449" font-family="'Thonburi'">worker ที่รออยู่เห็นเอง</text><polygon points="42.771,586.634,32.771,590.634,42.771,594.634,38.771,590.634" fill="#181818" style="stroke:#181818;stroke-width:1;stroke-linejoin:miter;stroke-miterlimit:10;"/><line x1="36.771" y1="590.634" x2="110.666" y2="590.634" style="stroke:#181818;stroke-width:1;stroke-dasharray:2,2;"/><text x="58.724" y="585.669" fill="#000" font-size="13" textLength="25.99" font-family="'Thonburi'">200</text><polygon points="728.199,636.425,738.199,640.425,728.199,644.425,732.199,640.425" fill="#181818" style="stroke:#181818;stroke-width:1;stroke-linejoin:miter;stroke-miterlimit:10;"/><line x1="400.013" y1="640.425" x2="734.199" y2="640.425" style="stroke:#181818;stroke-width:1;"/><text x="532.566" y="617.564" fill="#000" font-size="13" textLength="75.08" font-family="'Thonburi'">หยิบใบสั่งงาน</text><text x="483.468" y="635.459" fill="#000" font-size="13" textLength="173.276" font-family="'Thonburi'">(แยกเป็น asyncio task ต่อใบ)</text><path d="M384.013,652.425 L455.642,652.425 L455.642,662.32 L445.642,672.32 L384.013,672.32 L384.013,652.425" style="stroke:#000;stroke-width:1.5;" fill="#EEE"/><rect x="384.013" y="652.425" width="313.044" height="106.828" fill="none" style="stroke:#000;stroke-width:1.5;"/><text x="399.013" y="668.355" fill="#000" font-size="13" textLength="26.63" font-weight="700" font-family="'Thonburi'">loop</text><text x="470.642" y="667.058" fill="#000" font-size="11" textLength="95.691" font-weight="700" font-family="'Thonburi'">[ยังเงียบไม่ครบ 3 วิ]</text><polygon points="669.057,702.358,679.057,706.358,669.057,710.358,673.057,706.358" fill="#181818" style="stroke:#181818;stroke-width:1;stroke-linejoin:miter;stroke-miterlimit:10;"/><line x1="400.013" y1="706.358" x2="675.057" y2="706.358" style="stroke:#181818;stroke-width:1;"/><text x="479.61" y="701.392" fill="#000" font-size="13" textLength="121.849" font-family="'Thonburi'">อ่านเวลาข้อความล่าสุด</text><line x1="400.013" y1="738.253" x2="442.013" y2="738.253" style="stroke:#181818;stroke-width:1;"/><line x1="442.013" y1="738.253" x2="442.013" y2="751.253" style="stroke:#181818;stroke-width:1;"/><line x1="401.013" y1="751.253" x2="442.013" y2="751.253" style="stroke:#181818;stroke-width:1;"/><polygon points="411.013,747.253,401.013,751.253,411.013,755.253,407.013,751.253" fill="#181818" style="stroke:#181818;stroke-width:1;stroke-linejoin:miter;stroke-miterlimit:10;"/><text x="407.013" y="733.287" fill="#000" font-size="13" textLength="87.704" font-family="'Thonburi'">หลับเท่าที่ยังขาด</text><polygon points="669.057,793.148,679.057,797.148,669.057,801.148,673.057,797.148" fill="#181818" style="stroke:#181818;stroke-width:1;stroke-linejoin:miter;stroke-miterlimit:10;"/><line x1="400.013" y1="797.148" x2="675.057" y2="797.148" style="stroke:#181818;stroke-width:1;"/><text x="456.893" y="792.183" fill="#000" font-size="13" textLength="167.284" font-family="'Thonburi'">BUFFERING → PROCESSING</text><polygon points="1081.342,842.939,1091.342,846.939,1081.342,850.939,1085.342,846.939" fill="#181818" style="stroke:#181818;stroke-width:1;stroke-linejoin:miter;stroke-miterlimit:10;"/><line x1="400.013" y1="846.939" x2="1087.342" y2="846.939" style="stroke:#181818;stroke-width:1;"/><text x="691.803" y="824.078" fill="#000" font-size="13" textLength="109.748" font-family="'Thonburi'">loading animation</text><text x="691.153" y="841.973" fill="#000" font-size="13" textLength="111.048" font-family="'Thonburi'">(หายเองตอน reply)</text><polygon points="801.976,874.834,811.976,878.834,801.976,882.834,805.976,878.834" fill="#181818" style="stroke:#181818;stroke-width:1;stroke-linejoin:miter;stroke-miterlimit:10;"/><line x1="400.013" y1="878.834" x2="807.976" y2="878.834" style="stroke:#181818;stroke-width:1;"/><text x="589.467" y="873.869" fill="#000" font-size="13" textLength="35.054" font-family="'Thonburi'">เก็บรูป</text><polygon points="1081.342,906.73,1091.342,910.73,1081.342,914.73,1085.342,910.73" fill="#181818" style="stroke:#181818;stroke-width:1;stroke-linejoin:miter;stroke-miterlimit:10;"/><line x1="813.976" y1="910.73" x2="1087.342" y2="910.73" style="stroke:#181818;stroke-width:1;"/><text x="923.612" y="905.764" fill="#000" font-size="13" textLength="60.094" font-family="'Thonburi'">ดาวน์โหลด</text><polygon points="890.042,938.625,900.042,942.625,890.042,946.625,894.042,942.625" fill="#181818" style="stroke:#181818;stroke-width:1;stroke-linejoin:miter;stroke-miterlimit:10;"/><line x1="400.013" y1="942.625" x2="896.042" y2="942.625" style="stroke:#181818;stroke-width:1;"/><text x="596.016" y="937.659" fill="#000" font-size="13" textLength="110.023" font-family="'Thonburi'">ประกอบ messages</text><polygon points="986.905,970.52,996.905,974.52,986.905,978.52,990.905,974.52" fill="#181818" style="stroke:#181818;stroke-width:1;stroke-linejoin:miter;stroke-miterlimit:10;"/><line x1="400.013" y1="974.52" x2="992.905" y2="974.52" style="stroke:#181818;stroke-width:1;"/><text x="668.67" y="969.555" fill="#000" font-size="13" textLength="61.577" font-family="'Thonburi'">messages</text><polygon points="1122.259,1002.416,1132.259,1006.416,1122.259,1010.416,1126.259,1006.416" fill="#181818" style="stroke:#181818;stroke-width:1;stroke-linejoin:miter;stroke-miterlimit:10;"/><line x1="998.905" y1="1006.416" x2="1128.259" y2="1006.416" style="stroke:#181818;stroke-width:1;"/><text x="1044.728" y="1001.45" fill="#000" font-size="13" textLength="43.707" font-family="'Thonburi'">stream</text><polygon points="411.013,1034.311,401.013,1038.311,411.013,1042.311,407.013,1038.311" fill="#181818" style="stroke:#181818;stroke-width:1;stroke-linejoin:miter;stroke-miterlimit:10;"/><line x1="405.013" y1="1038.311" x2="997.905" y2="1038.311" style="stroke:#181818;stroke-width:1;stroke-dasharray:2,2;"/><text x="617.47" y="1033.345" fill="#000" font-size="13" textLength="163.978" font-family="'Thonburi'">คำตอบ (บันทึก ai_calls แล้ว)</text><polygon points="1081.342,1066.206,1091.342,1070.206,1081.342,1074.206,1085.342,1070.206" fill="#181818" style="stroke:#181818;stroke-width:1;stroke-linejoin:miter;stroke-miterlimit:10;"/><line x1="400.013" y1="1070.206" x2="1087.342" y2="1070.206" style="stroke:#181818;stroke-width:1;"/><text x="731.268" y="1065.241" fill="#000" font-size="13" textLength="30.819" font-family="'Thonburi'">reply</text><polygon points="42.771,1080.206,32.771,1084.206,42.771,1088.206,38.771,1084.206" fill="#181818" style="stroke:#181818;stroke-width:1;stroke-linejoin:miter;stroke-miterlimit:10;"/><line x1="36.771" y1="1084.206" x2="1092.342" y2="1084.206" style="stroke:#181818;stroke-width:1;"/><polygon points="669.057,1129.997,679.057,1133.997,669.057,1137.997,673.057,1133.997" fill="#181818" style="stroke:#181818;stroke-width:1;stroke-linejoin:miter;stroke-miterlimit:10;"/><line x1="400.013" y1="1133.997" x2="675.057" y2="1133.997" style="stroke:#181818;stroke-width:1;"/><text x="432.325" y="1111.136" fill="#000" font-size="13" textLength="216.419" font-family="'Thonburi'">บันทึกคำตอบบอท, ข้อความ → ตอบแล้ว</text><text x="412.013" y="1129.031" fill="#000" font-size="13" textLength="257.044" font-family="'Thonburi'">ล้าง buffer, ต่อประวัติ, PROCESSING → IDLE</text><path d="M357.324,1146.997 L357.324,1227.997 L1041.324,1227.997 L1041.324,1156.997 L1031.324,1146.997 L357.324,1146.997" style="stroke:#181818;stroke-width:0.5;" fill="#FFF1B8"/><path d="M1031.324,1146.997 L1031.324,1156.997 L1041.324,1156.997 L1031.324,1146.997" style="stroke:#181818;stroke-width:0.5;" fill="#FFF1B8"/><text x="534.175" y="1166.927" fill="#000" font-size="13" textLength="321.567" font-family="'Thonburi'">AI พังหรือเกิน 50 วิ → worker reply ข้อความสำรอง [S6]</text><text x="534.175" y="1184.822" fill="#000" font-size="13" textLength="294.231" font-family="'Thonburi'">แล้วบันทึกข้อความสำรองลง messages เป็น role บอท</text><text x="534.175" y="1202.717" fill="#000" font-size="13" textLength="244.958" font-family="'Thonburi'">(ไม่งั้นตัววิเคราะห์อ่านแล้วเหมือนบอทเงียบไป)</text><text x="534.175" y="1220.612" fill="#000" font-size="13" textLength="248.163" font-family="'Thonburi'">(Claude เสนอ — Idea ยังไม่มีกฎเรื่อง error)</text><path d="M524.223,1238.578 L524.223,1301.578 L837.223,1301.578 L837.223,1248.578 L827.223,1238.578 L524.223,1238.578" style="stroke:#181818;stroke-width:0.5;" fill="#F0F0F0"/><path d="M827.223,1238.578 L827.223,1248.578 L837.223,1248.578 L827.223,1238.578" style="stroke:#181818;stroke-width:0.5;" fill="#F0F0F0"/><text x="530.223" y="1258.508" fill="#000" font-size="13" textLength="292.668" font-family="'Thonburi'">session.py / job.py / pdpa.py / attachment.py</text><text x="530.223" y="1276.403" fill="#000" font-size="13" textLength="287.163" font-family="'Thonburi'">คุยกับ clients/database.py และ clients/redis.py</text><text x="530.223" y="1294.298" fill="#000" font-size="13" textLength="143.487" font-family="'Thonburi'">(ละไว้ไม่วาด ให้ภาพไม่รก)</text><?plantuml-src dLPRJznM47xthnXj7W8gvPAc5rLgAo2xrLRS15GyX2Wwkpw0YzTsR2-KDpP1tT96VQX04KkLDY2q4cWb8AJn_XihlwGpStpMNY-fcWe4n-VCcSitCz-Pkn17J-FkVXnrucWlZjfnT1r7h-Be8ewEukZlkFjp73Llb-dknj517Dsmv1yiUKthBihy6KTdSVSvhqaLlDiz0DgBNlEbgpXgnP6wqUYfXudH2NQ8B3MXR4fXtCMDGvOxvRzDRVTD79smCmrMTyINSATBddIVaT4WzElLiExBqPff19kMumbVrC2KQw9kXoNN2UT4JK9XUSDrAdNVAcI4WWrXkjkMimvhmWvazaG-gKkdAcTb48XrEMbRwmvKfHDAtp12AxJb_mTLuVH1o3vSklV8CD2rqAfQdd12ACoKvue5407GmgYuFq91U5u1xfG-fny3e4zSUDROgcDRZXprTlZUv48vBrH5j7pNjgKVv8IdbnTdyjBRhh-f9DLAowuOqZ41FL9U1TBVigeo64FVYiNI_L8fhyWpFS4t5nuiJEOF0yo0vJfylbHSMigV_-1M-Eox-Qc1cCDGL3Tgc3KLyFBoW6NVhNdgT65nVdPXUH2HMgtkM5KHkhu2OdvsjZ--gcsX1GwlL2hTBtwHrq4ughipZpbPUJSjVJfPxgasI18-_fhI15_2jgnikEwcGL-uoUcWF_oXrA8K5zKlSRV9vNR65NN2cx_ovb7l3Y5D5wYPEbotfqd3TXjSV5YqxMzI4_IVz3Uu5Iz1Rc7CyEwdtw7ccj8EncggKNetA5Li0EltUYoEpia2QQNsXYIfy14mHwZMVa5jas6ARCyCwZtabkb0fRws9dtIH76sTTYtzkQPRZFq9iBsWwyKyNJO_X7nJNVV47O8vGSpbAUSLThbeAU-BvMAY-MvRrUT8JRncdLUgQw7HMbQ0GmUv6XjE6C1ovS1ViQ0PAxGBnC3QKEdJmo4MwOUG3ydfjdBAE-bRuyvNL7dkLwq-E-5EjBD39oFD-p4APl8MjabUQueNXEJK-MgyaI3IJtU6nytZ9LCU6JbX4clzI-X4gWKo0bL0-a_LhQmItQSgkL2A8BDj0IKfc73TbrFLVILnhgfiMwbiHEE654BFW4kZHi4QgMlj3ePDlxWcjBQLdIyPxgnTWdIHBY7hVQM7iHhkaumPjr94qs5XomrZVlugOJIthTTOT9B9Xoh9a9iBYxDYmm7TDXEKkxWIy_U6LPQa1arUpGOwXP3r4Na3Jhh9ncgu6j6u8WVgQSwp0EbJJ4fInwpdalkwWvXdj14a7YFP8folKt-LiOcYVNmRPUYbcptC5LTTPXe71fa413MuwgmxG2o_J2SHumHCFHtKhL6VoaCabEVTVx5nOiHUCzJZpbBfJFUh3fwoOIeM6maKzGfTcts0NNSZ6JopwgPfWp73IMuMzYqAoCAKtg99gRe9K8Su-YbBh8BrlcMIvoJpVC7V3gUj08hJGY0uNdVb7FEA9mcGzp3fSyUeQriVF-HrtEQk8oQlOA0lkx7oKH23t6qDvHfwYRJo3uRF6JBRHKIgzZJa-Kb4zVp_XxFUAsOZVnwgv-5nDvjV79C33uqROkwAPMlvsf8vH6FHjii7_LyVSLQqEflV8SpaYIz2TBtNN-Ovm3AQpQxN9LtIkFqWuQJHnJ7BXW378FKWeOfjKh77_oczEWNH8_JBT2pYob2KH41ZNiwY_Z8wrEVdZEbOqWTSJ1jmYoDIcNq09BNXF3yYxTUPeGmraOQt3y0?></g></svg>