<svg xmlns="http://www.w3.org/2000/svg" xmlns:xlink="http://www.w3.org/1999/xlink" version="1.1" data-diagram-type="ACTIVITY" style="width:1822px;height:1347px;background:#FFFFFF;" width="1822px" height="1347px" viewBox="0 0 1822 1347" zoomAndPan="magnify" preserveAspectRatio="none" contentStyleType="text/css"><?plantuml 1.2026.7?><defs/><g font-family="sans-serif" lengthAdjust="spacing"><g class="title" data-source-line="6"><text x="742.317" y="36.078" fill="#000" font-size="14" textLength="335.551" font-weight="700" font-family="'Thonburi'">Happy path — จากเรื่องที่เล่า ถึงรายงานที่ทีมออกแบบได้</text></g><rect x="20" y="57.878" width="1775.185" height="24.778" fill="none" style="stroke:none;"/><ellipse cx="158.431" cy="97.656" rx="10" ry="10" fill="#222" style="stroke:#222;stroke-width:1;"/><rect x="114.452" y="127.656" width="87.959" height="36.519" fill="#F1F1F1" style="stroke:#181818;stroke-width:0.5;" rx="12.5" ry="12.5"/><text x="124.452" y="151.437" fill="#000" font-size="12" textLength="67.959" font-family="'Thonburi'">เพิ่มเพื่อนบอท</text><polygon points="110.972,240.694,205.89,240.694,217.89,252.694,205.89,264.694,110.972,264.694,98.972,252.694,110.972,240.694" fill="#F1F1F1" style="stroke:#181818;stroke-width:0.5;stroke-linejoin:miter;stroke-miterlimit:10;"/><text x="162.431" y="277.327" fill="#000" font-size="11" textLength="97.87" font-family="'Thonburi'">ยัง ส่งข้อความมาแทน</text><text x="110.972" y="257.755" fill="#000" font-size="11" textLength="94.918" font-family="'Thonburi'">กดยอมรับแล้วหรือยัง</text><text x="53" y="250.184" fill="#000" font-size="11" textLength="45.972" font-family="'Thonburi'">กดยอมรับ</text><rect x="93.494" y="437.864" width="129.875" height="53.037" fill="#F1F1F1" style="stroke:#181818;stroke-width:0.5;" rx="12.5" ry="12.5"/><text x="103.494" y="461.645" fill="#000" font-size="12" textLength="109.875" font-family="'Thonburi'">เล่า / ส่งรูป / ปักหมุด</text><text x="103.494" y="478.164" fill="#000" font-size="12" textLength="64.495" font-family="'Thonburi'">[S2 S3 S4]</text><polygon points="158.431,393.864,170.431,405.864,158.431,417.864,146.431,405.864,158.431,393.864" fill="#F1F1F1" style="stroke:#181818;stroke-width:0.5;stroke-linejoin:miter;stroke-miterlimit:10;"/><polygon points="134.801,819.57,182.062,819.57,194.062,831.57,182.062,843.57,134.801,843.57,122.801,831.57,134.801,819.57" fill="#F1F1F1" style="stroke:#181818;stroke-width:0.5;stroke-linejoin:miter;stroke-miterlimit:10;"/><text x="134.801" y="836.632" fill="#000" font-size="11" textLength="47.261" font-family="'Thonburi'">เล่าต่อไหม</text><text x="194.062" y="829.061" fill="#000" font-size="11" textLength="28.737" font-family="'Thonburi'">เล่าต่อ</text><line x1="20" y1="57.878" x2="20" y2="1326.374" style="stroke:#000;stroke-width:1.5;"/><rect x="369.872" y="184.175" width="124.555" height="36.519" fill="#F1F1F1" style="stroke:#181818;stroke-width:0.5;" rx="12.5" ry="12.5"/><text x="379.872" y="207.956" fill="#000" font-size="12" textLength="104.555" font-family="'Thonburi'">ส่งการ์ด PDPA [S1]</text><path d="M528.17,302.45 L528.17,321.345 L508.17,325.345 L528.17,329.345 L528.17,348.241 A0,0 0 0 0 528.17,348.241 L771.293,348.241 A0,0 0 0 0 771.293,348.241 L771.293,312.45 L761.293,302.45 L528.17,302.45 A0,0 0 0 0 528.17,302.45" style="stroke:#181818;stroke-width:0.5;" fill="#FEFFDD"/><path d="M761.293,302.45 L761.293,312.45 L771.293,312.45 L761.293,302.45" style="stroke:#181818;stroke-width:0.5;" fill="#FEFFDD"/><text x="534.17" y="322.38" fill="#000" font-size="13" textLength="185.641" font-family="'Thonburi'">คนที่เป็นเพื่อนอยู่ก่อนเปิดระบบใหม่</text><text x="534.17" y="340.275" fill="#000" font-size="13" textLength="222.122" font-family="'Thonburi'">ไม่ได้การ์ดตอนเพิ่มเพื่อน จะเจอการ์ดตรงนี้</text><rect x="356.128" y="298.827" width="152.042" height="53.037" fill="#F1F1F1" style="stroke:#181818;stroke-width:0.5;" rx="12.5" ry="12.5"/><text x="366.128" y="322.608" fill="#000" font-size="12" textLength="132.042" font-family="'Thonburi'">ไม่เก็บข้อความ ไม่ส่งให้ AI</text><text x="366.128" y="339.127" fill="#000" font-size="12" textLength="102.708" font-family="'Thonburi'">ส่งการ์ดอีกครั้ง [S1]</text><rect x="330.938" y="510.902" width="202.423" height="69.556" fill="#F1F1F1" style="stroke:#181818;stroke-width:0.5;" rx="12.5" ry="12.5"/><text x="340.938" y="534.683" fill="#000" font-size="12" textLength="29.456" font-weight="700" font-family="'Thonburi'">Input</text><text x="340.938" y="551.202" fill="#000" font-size="12" textLength="104.245" font-family="'Thonburi'">ข้อความ รูป ตำแหน่ง</text><text x="340.938" y="567.72" fill="#000" font-size="12" textLength="182.423" font-family="'Thonburi'">ส่งติดกันภายใน 3 วิ = ตอบครั้งเดียว</text><rect x="355.805" y="600.458" width="152.689" height="53.037" fill="#F1F1F1" style="stroke:#181818;stroke-width:0.5;" rx="12.5" ry="12.5"/><text x="365.805" y="624.239" fill="#000" font-size="12" textLength="132.689" font-family="'Thonburi'">แสดง loading animation</text><text x="365.805" y="640.758" fill="#000" font-size="12" textLength="120.876" font-family="'Thonburi'">ผู้แจ้งเห็นว่าบอทกำลังคิด</text><rect x="271.301" y="730.014" width="321.697" height="69.556" fill="#F1F1F1" style="stroke:#181818;stroke-width:0.5;" rx="12.5" ry="12.5"/><text x="281.301" y="753.795" fill="#000" font-size="12" textLength="40.688" font-weight="700" font-family="'Thonburi'">Output</text><text x="281.301" y="770.314" fill="#000" font-size="12" textLength="75.291" font-family="'Thonburi'">คำตอบถึงผู้แจ้ง</text><text x="281.301" y="786.833" fill="#000" font-size="12" textLength="301.697" font-family="'Thonburi'">ถ้า AI ไม่ตอบใน 1 นาที → ข้อความสำรอง เรื่องไม่หาย [S6]</text><rect x="407.222" y="882.668" width="49.855" height="36.519" fill="#F1F1F1" style="stroke:#181818;stroke-width:0.5;" rx="12.5" ry="12.5"/><text x="417.222" y="906.449" fill="#000" font-size="12" textLength="29.855" font-family="'Thonburi'">ปิดใบ</text><path d="M552.053,1024.107 L552.053,1043.002 L532.053,1047.002 L552.053,1051.002 L552.053,1069.897 A0,0 0 0 0 552.053,1069.897 L1224.937,1069.897 A0,0 0 0 0 1224.937,1069.897 L1224.937,1034.107 L1214.937,1024.107 L552.053,1024.107 A0,0 0 0 0 552.053,1024.107" style="stroke:#181818;stroke-width:0.5;" fill="#FFF1B8"/><path d="M1214.937,1024.107 L1214.937,1034.107 L1224.937,1034.107 L1214.937,1024.107" style="stroke:#181818;stroke-width:0.5;" fill="#FFF1B8"/><text x="558.053" y="1044.036" fill="#000" font-size="13" textLength="518.293" font-family="'Thonburi'">ปิดใบหลังเงียบ 10 นาที (ตัดสิน 2026-10-08) → รายงานเกิดราว 11 นาทีหลังข้อความสุดท้าย</text><text x="558.053" y="1061.932" fill="#000" font-size="13" textLength="651.883" font-family="'Thonburi'">S5 (บอทบอกในบทสนทนาว่าบันทึกแล้ว) นอก happy path — ตอนนั้น reply token หมดแล้ว ต้องใช้ push (กินโควตา)</text><rect x="332.246" y="1012.224" width="199.808" height="69.556" fill="#F1F1F1" style="stroke:#181818;stroke-width:0.5;" rx="12.5" ry="12.5"/><text x="342.246" y="1036.005" fill="#000" font-size="12" textLength="40.688" font-weight="700" font-family="'Thonburi'">Output</text><text x="342.246" y="1052.524" fill="#000" font-size="12" textLength="179.808" font-family="'Thonburi'">รายงาน 0..n ใบ แต่ละใบมีสรุป tag</text><text x="342.246" y="1069.043" fill="#000" font-size="12" textLength="144.886" font-family="'Thonburi'">และคำพูดเต็มของทั้งใบ [S7]</text><rect x="296.672" y="1174.818" width="270.955" height="53.037" fill="#F1F1F1" style="stroke:#181818;stroke-width:0.5;" rx="12.5" ry="12.5"/><text x="306.672" y="1198.599" fill="#000" font-size="12" textLength="29.456" font-weight="700" font-family="'Thonburi'">Input</text><text x="340.113" y="1198.599" fill="#000" font-size="12" textLength="84.937" font-family="'Thonburi'">คำขอพร้อม JWT</text><text x="306.672" y="1215.118" fill="#000" font-size="12" textLength="40.688" font-weight="700" font-family="'Thonburi'">Output</text><text x="351.344" y="1215.118" fill="#000" font-size="12" textLength="206.283" font-family="'Thonburi'">รายงานในรูปแบบเดิม ไม่มี LINE ID [S8]</text><line x1="265.301" y1="57.878" x2="265.301" y2="1326.374" style="stroke:#000;stroke-width:1.5;"/><rect x="1257.548" y="673.495" width="139.095" height="36.519" fill="#F1F1F1" style="stroke:#181818;stroke-width:0.5;" rx="12.5" ry="12.5"/><text x="1267.548" y="697.277" fill="#000" font-size="12" textLength="119.095" font-family="'Thonburi'">ตัวคุย แต่งคำตอบ [S2]</text><rect x="1235.937" y="939.186" width="182.319" height="53.037" fill="#F1F1F1" style="stroke:#181818;stroke-width:0.5;" rx="12.5" ry="12.5"/><text x="1245.937" y="962.968" fill="#000" font-size="12" textLength="159.141" font-family="'Thonburi'">ตัววิเคราะห์ อ่านบทสนทนาทั้งใบ</text><text x="1245.937" y="979.486" fill="#000" font-size="12" textLength="162.319" font-family="'Thonburi'">สรุป ติด tag พิกัด เลือกรูป [S7]</text><line x1="1229.937" y1="57.878" x2="1229.937" y2="1326.374" style="stroke:#000;stroke-width:1.5;"/><path d="M1634.521,1105.403 L1634.521,1124.299 L1614.521,1128.299 L1634.521,1132.299 L1634.521,1151.194 A0,0 0 0 0 1634.521,1151.194 L1788.197,1151.194 A0,0 0 0 0 1788.197,1151.194 L1788.197,1115.403 L1778.197,1105.403 L1634.521,1105.403 A0,0 0 0 0 1634.521,1105.403" style="stroke:#181818;stroke-width:0.5;" fill="#FEFFDD"/><path d="M1778.197,1105.403 L1778.197,1115.403 L1788.197,1115.403 L1778.197,1105.403" style="stroke:#181818;stroke-width:0.5;" fill="#FEFFDD"/><text x="1640.521" y="1125.333" fill="#000" font-size="13" textLength="75.623" font-family="'Thonburi'">ดึงเมื่อไหร่ก็ได้</text><text x="1640.521" y="1143.228" fill="#000" font-size="13" textLength="132.676" font-family="'Thonburi'">ไม่ได้รอสัญญาณจากบอท</text><rect x="1428.255" y="1101.78" width="186.265" height="53.037" fill="#F1F1F1" style="stroke:#181818;stroke-width:0.5;" rx="12.5" ry="12.5"/><text x="1438.255" y="1125.561" fill="#000" font-size="12" textLength="166.265" font-family="'Thonburi'">เรียก /api/dashboard/reports</text><text x="1438.255" y="1142.08" fill="#000" font-size="12" textLength="79.945" font-family="'Thonburi'">ด้วย JWT [S8]</text><rect x="1485.89" y="1247.855" width="70.995" height="36.519" fill="#F1F1F1" style="stroke:#181818;stroke-width:0.5;" rx="12.5" ry="12.5"/><text x="1495.89" y="1271.636" fill="#000" font-size="12" textLength="50.995" font-family="'Thonburi'">ได้รายงาน</text><ellipse cx="1521.388" cy="1315.374" rx="11" ry="11" fill="none" style="stroke:#222;stroke-width:1;"/><ellipse cx="1521.388" cy="1315.374" rx="6" ry="6" fill="#222" style="stroke:#222;stroke-width:1;"/><line x1="1422.255" y1="57.878" x2="1422.255" y2="1326.374" style="stroke:#000;stroke-width:1.5;"/><line x1="1793.197" y1="57.878" x2="1793.197" y2="1326.374" style="stroke:#000;stroke-width:1.5;"/><polygon points="779.293,309.774,783.293,299.774,787.293,309.774,783.293,305.774" fill="#181818" style="stroke:#181818;stroke-width:1;stroke-linejoin:miter;stroke-miterlimit:10;"/><line x1="158.431" y1="107.656" x2="158.431" y2="127.656" style="stroke:#181818;stroke-width:1;"/><polygon points="154.431,117.656,158.431,127.656,162.431,117.656,158.431,121.656" fill="#181818" style="stroke:#181818;stroke-width:1;stroke-linejoin:miter;stroke-miterlimit:10;"/><line x1="98.972" y1="252.694" x2="70.41" y2="252.694" style="stroke:#181818;stroke-width:1;"/><polygon points="66.41,301.774,70.41,311.774,74.41,301.774,70.41,305.774" fill="#181818" style="stroke:#181818;stroke-width:1;stroke-linejoin:miter;stroke-miterlimit:10;"/><line x1="70.41" y1="252.694" x2="70.41" y2="373.864" style="stroke:#181818;stroke-width:1;"/><line x1="70.41" y1="373.864" x2="158.431" y2="373.864" style="stroke:#181818;stroke-width:1;"/><line x1="158.431" y1="373.864" x2="158.431" y2="393.864" style="stroke:#181818;stroke-width:1;"/><polygon points="154.431,383.864,158.431,393.864,162.431,383.864,158.431,387.864" fill="#181818" style="stroke:#181818;stroke-width:1;stroke-linejoin:miter;stroke-miterlimit:10;"/><line x1="158.431" y1="417.864" x2="158.431" y2="437.864" style="stroke:#181818;stroke-width:1;"/><polygon points="154.431,427.864,158.431,437.864,162.431,427.864,158.431,431.864" fill="#181818" style="stroke:#181818;stroke-width:1;stroke-linejoin:miter;stroke-miterlimit:10;"/><line x1="122.801" y1="831.57" x2="39" y2="831.57" style="stroke:#181818;stroke-width:1;"/><polygon points="35,628.717,39,618.717,43,628.717,39,624.717" fill="#181818" style="stroke:#181818;stroke-width:1;stroke-linejoin:miter;stroke-miterlimit:10;"/><line x1="39" y1="405.864" x2="39" y2="831.57" style="stroke:#181818;stroke-width:1;"/><line x1="39" y1="405.864" x2="146.431" y2="405.864" style="stroke:#181818;stroke-width:1;"/><polygon points="136.431,401.864,146.431,405.864,136.431,409.864,140.431,405.864" fill="#181818" style="stroke:#181818;stroke-width:1;stroke-linejoin:miter;stroke-miterlimit:10;"/><line x1="432.149" y1="580.458" x2="432.149" y2="600.458" style="stroke:#181818;stroke-width:1;"/><polygon points="428.149,590.458,432.149,600.458,436.149,590.458,432.149,594.458" fill="#181818" style="stroke:#181818;stroke-width:1;stroke-linejoin:miter;stroke-miterlimit:10;"/><line x1="1521.388" y1="1284.374" x2="1521.388" y2="1304.374" style="stroke:#181818;stroke-width:1;"/><polygon points="1517.388,1294.374,1521.388,1304.374,1525.388,1294.374,1521.388,1298.374" fill="#181818" style="stroke:#181818;stroke-width:1;stroke-linejoin:miter;stroke-miterlimit:10;"/><line x1="158.431" y1="164.175" x2="158.431" y2="169.175" style="stroke:#181818;stroke-width:1;"/><line x1="158.431" y1="169.175" x2="432.149" y2="169.175" style="stroke:#181818;stroke-width:1;"/><line x1="432.149" y1="169.175" x2="432.149" y2="184.175" style="stroke:#181818;stroke-width:1;"/><polygon points="428.149,174.175,432.149,184.175,436.149,174.175,432.149,178.175" fill="#181818" style="stroke:#181818;stroke-width:1;stroke-linejoin:miter;stroke-miterlimit:10;"/><line x1="158.431" y1="264.694" x2="158.431" y2="283.827" style="stroke:#181818;stroke-width:1;"/><line x1="158.431" y1="283.827" x2="432.149" y2="283.827" style="stroke:#181818;stroke-width:1;"/><line x1="432.149" y1="283.827" x2="432.149" y2="298.827" style="stroke:#181818;stroke-width:1;"/><polygon points="428.149,288.827,432.149,298.827,436.149,288.827,432.149,292.827" fill="#181818" style="stroke:#181818;stroke-width:1;stroke-linejoin:miter;stroke-miterlimit:10;"/><line x1="432.149" y1="351.864" x2="432.149" y2="361.864" style="stroke:#181818;stroke-width:1;"/><line x1="432.149" y1="361.864" x2="783.293" y2="361.864" style="stroke:#181818;stroke-width:1;"/><line x1="783.293" y1="252.694" x2="783.293" y2="361.864" style="stroke:#181818;stroke-width:1;"/><line x1="783.293" y1="252.694" x2="217.89" y2="252.694" style="stroke:#181818;stroke-width:1;"/><polygon points="227.89,248.694,217.89,252.694,227.89,256.694,223.89,252.694" fill="#181818" style="stroke:#181818;stroke-width:1;stroke-linejoin:miter;stroke-miterlimit:10;"/><line x1="432.149" y1="220.694" x2="432.149" y2="225.694" style="stroke:#181818;stroke-width:1;"/><line x1="432.149" y1="225.694" x2="158.431" y2="225.694" style="stroke:#181818;stroke-width:1;"/><line x1="158.431" y1="225.694" x2="158.431" y2="240.694" style="stroke:#181818;stroke-width:1;"/><polygon points="154.431,230.694,158.431,240.694,162.431,230.694,158.431,234.694" fill="#181818" style="stroke:#181818;stroke-width:1;stroke-linejoin:miter;stroke-miterlimit:10;"/><line x1="158.431" y1="490.902" x2="158.431" y2="495.902" style="stroke:#181818;stroke-width:1;"/><line x1="158.431" y1="495.902" x2="432.149" y2="495.902" style="stroke:#181818;stroke-width:1;"/><line x1="432.149" y1="495.902" x2="432.149" y2="510.902" style="stroke:#181818;stroke-width:1;"/><polygon points="428.149,500.902,432.149,510.902,436.149,500.902,432.149,504.902" fill="#181818" style="stroke:#181818;stroke-width:1;stroke-linejoin:miter;stroke-miterlimit:10;"/><line x1="432.149" y1="653.495" x2="432.149" y2="658.495" style="stroke:#181818;stroke-width:1;"/><line x1="432.149" y1="658.495" x2="1327.096" y2="658.495" style="stroke:#181818;stroke-width:1;"/><line x1="1327.096" y1="658.495" x2="1327.096" y2="673.495" style="stroke:#181818;stroke-width:1;"/><polygon points="1323.096,663.495,1327.096,673.495,1331.096,663.495,1327.096,667.495" fill="#181818" style="stroke:#181818;stroke-width:1;stroke-linejoin:miter;stroke-miterlimit:10;"/><line x1="1327.096" y1="710.014" x2="1327.096" y2="715.014" style="stroke:#181818;stroke-width:1;"/><line x1="1327.096" y1="715.014" x2="432.149" y2="715.014" style="stroke:#181818;stroke-width:1;"/><line x1="432.149" y1="715.014" x2="432.149" y2="730.014" style="stroke:#181818;stroke-width:1;"/><polygon points="428.149,720.014,432.149,730.014,436.149,720.014,432.149,724.014" fill="#181818" style="stroke:#181818;stroke-width:1;stroke-linejoin:miter;stroke-miterlimit:10;"/><line x1="432.149" y1="799.57" x2="432.149" y2="804.57" style="stroke:#181818;stroke-width:1;"/><line x1="432.149" y1="804.57" x2="158.431" y2="804.57" style="stroke:#181818;stroke-width:1;"/><line x1="158.431" y1="804.57" x2="158.431" y2="819.57" style="stroke:#181818;stroke-width:1;"/><polygon points="154.431,809.57,158.431,819.57,162.431,809.57,158.431,813.57" fill="#181818" style="stroke:#181818;stroke-width:1;stroke-linejoin:miter;stroke-miterlimit:10;"/><line x1="158.431" y1="843.57" x2="158.431" y2="867.668" style="stroke:#181818;stroke-width:1;"/><line x1="158.431" y1="867.668" x2="432.149" y2="867.668" style="stroke:#181818;stroke-width:1;"/><line x1="432.149" y1="867.668" x2="432.149" y2="882.668" style="stroke:#181818;stroke-width:1;"/><polygon points="428.149,872.668,432.149,882.668,436.149,872.668,432.149,876.668" fill="#181818" style="stroke:#181818;stroke-width:1;stroke-linejoin:miter;stroke-miterlimit:10;"/><text x="162.431" y="861.168" fill="#000" font-size="11" textLength="92.576" font-family="'Thonburi'">เงียบไปเกิน 10 นาที</text><line x1="432.149" y1="919.186" x2="432.149" y2="924.186" style="stroke:#181818;stroke-width:1;"/><line x1="432.149" y1="924.186" x2="1327.096" y2="924.186" style="stroke:#181818;stroke-width:1;"/><line x1="1327.096" y1="924.186" x2="1327.096" y2="939.186" style="stroke:#181818;stroke-width:1;"/><polygon points="1323.096,929.186,1327.096,939.186,1331.096,929.186,1327.096,933.186" fill="#181818" style="stroke:#181818;stroke-width:1;stroke-linejoin:miter;stroke-miterlimit:10;"/><line x1="1327.096" y1="992.224" x2="1327.096" y2="997.224" style="stroke:#181818;stroke-width:1;"/><line x1="1327.096" y1="997.224" x2="432.149" y2="997.224" style="stroke:#181818;stroke-width:1;"/><line x1="432.149" y1="997.224" x2="432.149" y2="1012.224" style="stroke:#181818;stroke-width:1;"/><polygon points="428.149,1002.224,432.149,1012.224,436.149,1002.224,432.149,1006.224" fill="#181818" style="stroke:#181818;stroke-width:1;stroke-linejoin:miter;stroke-miterlimit:10;"/><line x1="432.149" y1="1081.78" x2="432.149" y2="1086.78" style="stroke:#181818;stroke-width:1;"/><line x1="432.149" y1="1086.78" x2="1521.388" y2="1086.78" style="stroke:#181818;stroke-width:1;"/><line x1="1521.388" y1="1086.78" x2="1521.388" y2="1101.78" style="stroke:#181818;stroke-width:1;"/><polygon points="1517.388,1091.78,1521.388,1101.78,1525.388,1091.78,1521.388,1095.78" fill="#181818" style="stroke:#181818;stroke-width:1;stroke-linejoin:miter;stroke-miterlimit:10;"/><line x1="1521.388" y1="1154.818" x2="1521.388" y2="1159.818" style="stroke:#181818;stroke-width:1;"/><line x1="1521.388" y1="1159.818" x2="432.149" y2="1159.818" style="stroke:#181818;stroke-width:1;"/><line x1="432.149" y1="1159.818" x2="432.149" y2="1174.818" style="stroke:#181818;stroke-width:1;"/><polygon points="428.149,1164.818,432.149,1174.818,436.149,1164.818,432.149,1168.818" fill="#181818" style="stroke:#181818;stroke-width:1;stroke-linejoin:miter;stroke-miterlimit:10;"/><line x1="432.149" y1="1227.855" x2="432.149" y2="1232.855" style="stroke:#181818;stroke-width:1;"/><line x1="432.149" y1="1232.855" x2="1521.388" y2="1232.855" style="stroke:#181818;stroke-width:1;"/><line x1="1521.388" y1="1232.855" x2="1521.388" y2="1247.855" style="stroke:#181818;stroke-width:1;"/><polygon points="1517.388,1237.855,1521.388,1247.855,1525.388,1237.855,1521.388,1241.855" fill="#181818" style="stroke:#181818;stroke-width:1;stroke-linejoin:miter;stroke-miterlimit:10;"/><text x="90.665" y="78.55" fill="#000" font-size="18" textLength="103.971" font-family="'Thonburi'">ผู้แจ้งในชุมชน</text><text x="714.54" y="78.55" fill="#000" font-size="18" textLength="66.157" font-family="'Thonburi'">น้องเมือง</text><text x="1273.924" y="78.55" fill="#000" font-size="18" textLength="104.344" font-family="'Thonburi'">ผู้ให้บริการ AI</text><text x="1543.679" y="78.55" fill="#000" font-size="18" textLength="128.095" font-family="'Thonburi'">ระบบทีมออกแบบ</text><?plantuml-src bLTTJnj757tVNt6LFYH-S6oJbY98aLAbg4HL6icH-e1uMEeDNWLirruhYiG32rPDglIbNO9iAbHZHPP0IC6GTFnlLlabdNjcPZ-C3KJom-xEp9rpppttmtUfRDTghwbcU-Lv2iK_eHY5epVXo0_57Z-8TZZQ3iNxSBGNYY6U-w7u3wzdSfLud-Y4uY0K7qFHmrVvys6YoxzHAnG1RFNPX3Xce_pGeNl5GhOubx7k4jlWBMVcnXxV4hyUXgCsxl4D62n9m-A2Fcy7XCkYYrjo2xcLMjEZ75MR7Z-4OWTN365p5zRayH7bPxCDvxUcK_dLARdsUjtUj1elvM5RFb79UM4tDxobQiLxQcywTETvkLfPQzRTEubDZR9TghvoA-lqmjveE9RbkTw6Gpz6t6g8u90XZjEe-PEl2RRbWNUX-8JbSUhY0xTWthAsfeHMiV17A0Gio8VEbjNmxBfdpGFAKIWkSKlFl4QWEuRoWmLSC3M0MzAMEC6nDW8uP7z6RoKuUlRusIDQAHPM5xuGvAkoAnc-1ti1c3d3gYJg7BuheKWBWr2SQhfvpp4sj3FaDlYuVgK4mXtZI0k7Xx3RW_nzqDt9M4JNUqmq3_fx9gO-1DoTQ9tYhH4AzlfKRgL7ozBODFvWw2C-jhJl84rJIbIfUWxLtVMo9r_OJYibdcHgJOYleck4BtxyNPsImc00yj8FHc_034VKRJ43KGqOWx-VC7cTrbJoVC32djRvkA4--Ed0jJSIW5CfmNyLhDjBIvwxGLqPowexDSVsL9mJAPjBXghFLuf3V3p4ILyJnFS5yl1ASOQA3wZuDUl_5ffwkBQup5NjOMvj4RAOgAReOj1o0PTFOPfnfUMqR-Be0w1aurzTQa0EFI0OlgJlo4IhEoOs00sWGqdKO46HulCb_BbD6rMxnCNHhhYRjkTMAu0mhTUScb8_q4t7b1bWl62kaR90mTWDTP51dJeusCSUBHQPJ2ersPDpEDP2B8u9CFODAorSfDtbADq-FZ-ZsqG1IbbA5FG9tcF_EzMZ9D9aLJ3dLKmAQ9Vi4USnVVxzBvfIjKvmUz_qwgjz9xxYL8LTEZkxUeNH6tD6fGEPl4dE39hLCzp5wjUbTzAUZ9LTn4BRo4briKDTGpcMqlzyYe3Rj1zJhXXzTwpNN2-Nf5W6g53RHlz3b3vvzYt1lptJcxi0Tc9ARGJrFC5XryAEFdZKgSeGoRFNIHT3dPG1QRAqItwSuIl5RrTlzZyjomc3MFx-_GefMCbCU8-Ikmk7UeX80h74QUasopGeeHy1Lm08-qZa7aip7d9I56ZuSPEYhvQMbWhVpo4LKZ63T4pcfnKohWUksofa0G13CpFvcTbi8P_DpsLqmbmPgMA91MPrG8LqigLWJCqv0HC7PjmybkuKls5OKIMBXjNTwO99rhzpi_J9J7XwkCcGwTH-OfRNywRfhlnJn7T8Pkh6Q_AgBnqPSTsDWgH5d8krjCifBkUGMhDHrXtn4cpj6BVbBSEC5NLR5cDYA9W-dsxf6RDl8kbJpgwvkPBTAAzLxNef9x5Mwrx3CiF3W0lKar-UIztCfNG3lGIwjaRoJvMTlfbYsl5SF7b4KUNo1AJ_YP-CmT_nz6wYc7RvXloBsdRK4rHM706PEjbZtwnKiaxKgTACBW69SL-ruSknYP8JbtvQVle3BJ_Mn7rPYAR-VrkGVnMgjVy1?></g></svg>